G75*
%MOIN*%
%OFA0B0*%
%FSLAX25Y25*%
%IPPOS*%
%LPD*%
%AMOC8*
5,1,8,0,0,1.08239X$1,22.5*
%
%ADD10C,0.00500*%
%ADD11C,0.00300*%
%ADD12C,0.00200*%
%ADD13C,0.00400*%
%ADD14C,0.00600*%
%ADD15C,0.00800*%
D10*
X0001275Y0001250D02*
X0001250Y0040662D01*
X0129113Y0040662D01*
X0129138Y0001250D01*
X0001275Y0001250D01*
X0075786Y0010825D02*
X0077386Y0012425D01*
X0077386Y0009225D01*
X0075786Y0010825D01*
X0075954Y0010993D02*
X0077386Y0010993D01*
X0077386Y0010495D02*
X0076116Y0010495D01*
X0076614Y0009996D02*
X0077386Y0009996D01*
X0077386Y0009498D02*
X0077113Y0009498D01*
X0077386Y0011492D02*
X0076452Y0011492D01*
X0076951Y0011990D02*
X0077386Y0011990D01*
X0075343Y0029017D02*
X0081843Y0029017D01*
X0085343Y0029017D02*
X0088843Y0029017D01*
X0088843Y0038517D01*
X0085343Y0038517D01*
X0081843Y0038517D02*
X0075343Y0038517D01*
X0071843Y0038517D02*
X0065343Y0038517D01*
X0061843Y0038517D02*
X0055343Y0038517D01*
X0051843Y0038517D02*
X0045343Y0038517D01*
X0041843Y0038517D02*
X0038843Y0038517D01*
X0038843Y0029017D01*
X0041843Y0029017D01*
X0045343Y0029017D02*
X0051843Y0029017D01*
X0055343Y0029017D02*
X0061843Y0029017D01*
X0065343Y0029017D02*
X0071843Y0029017D01*
D11*
X0052128Y0025627D02*
X0050072Y0025627D01*
X0050072Y0023983D01*
X0051305Y0023983D01*
X0051305Y0023982D02*
X0051361Y0023980D01*
X0051417Y0023974D01*
X0051472Y0023965D01*
X0051527Y0023952D01*
X0051580Y0023935D01*
X0051632Y0023914D01*
X0051683Y0023890D01*
X0051732Y0023862D01*
X0051779Y0023832D01*
X0051824Y0023798D01*
X0051866Y0023761D01*
X0051906Y0023721D01*
X0051943Y0023679D01*
X0051977Y0023634D01*
X0052007Y0023587D01*
X0052035Y0023538D01*
X0052059Y0023487D01*
X0052080Y0023435D01*
X0052097Y0023382D01*
X0052110Y0023327D01*
X0052119Y0023272D01*
X0052125Y0023216D01*
X0052127Y0023160D01*
X0052128Y0023160D02*
X0052128Y0022749D01*
X0052127Y0022749D02*
X0052125Y0022693D01*
X0052119Y0022637D01*
X0052110Y0022582D01*
X0052097Y0022527D01*
X0052080Y0022474D01*
X0052059Y0022422D01*
X0052035Y0022371D01*
X0052007Y0022322D01*
X0051977Y0022275D01*
X0051943Y0022230D01*
X0051906Y0022188D01*
X0051866Y0022148D01*
X0051824Y0022111D01*
X0051779Y0022077D01*
X0051732Y0022047D01*
X0051683Y0022019D01*
X0051632Y0021995D01*
X0051580Y0021974D01*
X0051527Y0021957D01*
X0051472Y0021944D01*
X0051417Y0021935D01*
X0051361Y0021929D01*
X0051305Y0021927D01*
X0050072Y0021927D01*
X0048528Y0022749D02*
X0046472Y0022749D01*
X0047294Y0025627D01*
X0044928Y0025627D02*
X0042872Y0025627D01*
X0042872Y0023983D01*
X0044105Y0023983D01*
X0044105Y0023982D02*
X0044161Y0023980D01*
X0044217Y0023974D01*
X0044272Y0023965D01*
X0044327Y0023952D01*
X0044380Y0023935D01*
X0044432Y0023914D01*
X0044483Y0023890D01*
X0044532Y0023862D01*
X0044579Y0023832D01*
X0044624Y0023798D01*
X0044666Y0023761D01*
X0044706Y0023721D01*
X0044743Y0023679D01*
X0044777Y0023634D01*
X0044807Y0023587D01*
X0044835Y0023538D01*
X0044859Y0023487D01*
X0044880Y0023435D01*
X0044897Y0023382D01*
X0044910Y0023327D01*
X0044919Y0023272D01*
X0044925Y0023216D01*
X0044927Y0023160D01*
X0044928Y0023160D02*
X0044928Y0022749D01*
X0044927Y0022749D02*
X0044925Y0022693D01*
X0044919Y0022637D01*
X0044910Y0022582D01*
X0044897Y0022527D01*
X0044880Y0022474D01*
X0044859Y0022422D01*
X0044835Y0022371D01*
X0044807Y0022322D01*
X0044777Y0022275D01*
X0044743Y0022230D01*
X0044706Y0022188D01*
X0044666Y0022148D01*
X0044624Y0022111D01*
X0044579Y0022077D01*
X0044532Y0022047D01*
X0044483Y0022019D01*
X0044432Y0021995D01*
X0044380Y0021974D01*
X0044327Y0021957D01*
X0044272Y0021944D01*
X0044217Y0021935D01*
X0044161Y0021929D01*
X0044105Y0021927D01*
X0042872Y0021927D01*
X0040300Y0021927D02*
X0041328Y0025627D01*
X0039272Y0025627D01*
X0039272Y0025216D01*
X0037728Y0024702D02*
X0037726Y0024760D01*
X0037721Y0024818D01*
X0037712Y0024875D01*
X0037699Y0024932D01*
X0037683Y0024988D01*
X0037663Y0025043D01*
X0037640Y0025096D01*
X0037614Y0025148D01*
X0037584Y0025198D01*
X0037551Y0025246D01*
X0037516Y0025292D01*
X0037477Y0025335D01*
X0037436Y0025376D01*
X0037393Y0025415D01*
X0037347Y0025450D01*
X0037299Y0025483D01*
X0037249Y0025513D01*
X0037197Y0025539D01*
X0037144Y0025562D01*
X0037089Y0025582D01*
X0037033Y0025598D01*
X0036976Y0025611D01*
X0036919Y0025620D01*
X0036861Y0025625D01*
X0036803Y0025627D01*
X0037728Y0024702D02*
X0037726Y0024640D01*
X0037720Y0024578D01*
X0037711Y0024517D01*
X0037697Y0024457D01*
X0037680Y0024397D01*
X0037659Y0024339D01*
X0037635Y0024282D01*
X0037607Y0024227D01*
X0037576Y0024173D01*
X0037541Y0024122D01*
X0037504Y0024073D01*
X0037463Y0024026D01*
X0037420Y0023982D01*
X0037419Y0023983D02*
X0035672Y0021927D01*
X0037728Y0021927D01*
X0034622Y0021927D02*
X0033800Y0022749D01*
X0034211Y0022955D02*
X0034211Y0024599D01*
X0034209Y0024662D01*
X0034203Y0024725D01*
X0034193Y0024788D01*
X0034180Y0024850D01*
X0034163Y0024911D01*
X0034142Y0024970D01*
X0034117Y0025029D01*
X0034089Y0025085D01*
X0034057Y0025140D01*
X0034022Y0025193D01*
X0033984Y0025243D01*
X0033943Y0025292D01*
X0033899Y0025337D01*
X0033852Y0025380D01*
X0033803Y0025419D01*
X0033751Y0025456D01*
X0033697Y0025489D01*
X0033641Y0025519D01*
X0033584Y0025546D01*
X0033525Y0025569D01*
X0033464Y0025588D01*
X0033403Y0025603D01*
X0033341Y0025615D01*
X0033278Y0025623D01*
X0033215Y0025627D01*
X0033151Y0025627D01*
X0033088Y0025623D01*
X0033025Y0025615D01*
X0032963Y0025603D01*
X0032902Y0025588D01*
X0032841Y0025569D01*
X0032782Y0025546D01*
X0032725Y0025519D01*
X0032669Y0025489D01*
X0032615Y0025456D01*
X0032563Y0025419D01*
X0032514Y0025380D01*
X0032467Y0025337D01*
X0032423Y0025292D01*
X0032382Y0025243D01*
X0032344Y0025193D01*
X0032309Y0025140D01*
X0032277Y0025085D01*
X0032249Y0025029D01*
X0032224Y0024970D01*
X0032203Y0024911D01*
X0032186Y0024850D01*
X0032173Y0024788D01*
X0032163Y0024725D01*
X0032157Y0024662D01*
X0032155Y0024599D01*
X0032156Y0024599D02*
X0032156Y0022955D01*
X0032155Y0022955D02*
X0032157Y0022892D01*
X0032163Y0022829D01*
X0032173Y0022766D01*
X0032186Y0022704D01*
X0032203Y0022643D01*
X0032224Y0022584D01*
X0032249Y0022525D01*
X0032277Y0022469D01*
X0032309Y0022414D01*
X0032344Y0022361D01*
X0032382Y0022311D01*
X0032423Y0022262D01*
X0032467Y0022217D01*
X0032514Y0022174D01*
X0032563Y0022135D01*
X0032615Y0022098D01*
X0032669Y0022065D01*
X0032725Y0022035D01*
X0032782Y0022008D01*
X0032841Y0021985D01*
X0032902Y0021966D01*
X0032963Y0021951D01*
X0033025Y0021939D01*
X0033088Y0021931D01*
X0033151Y0021927D01*
X0033215Y0021927D01*
X0033278Y0021931D01*
X0033341Y0021939D01*
X0033403Y0021951D01*
X0033464Y0021966D01*
X0033525Y0021985D01*
X0033584Y0022008D01*
X0033641Y0022035D01*
X0033697Y0022065D01*
X0033751Y0022098D01*
X0033803Y0022135D01*
X0033852Y0022174D01*
X0033899Y0022217D01*
X0033943Y0022262D01*
X0033984Y0022311D01*
X0034022Y0022361D01*
X0034057Y0022414D01*
X0034089Y0022469D01*
X0034117Y0022525D01*
X0034142Y0022584D01*
X0034163Y0022643D01*
X0034180Y0022704D01*
X0034193Y0022766D01*
X0034203Y0022829D01*
X0034209Y0022892D01*
X0034211Y0022955D01*
X0035673Y0024805D02*
X0035696Y0024869D01*
X0035722Y0024932D01*
X0035752Y0024993D01*
X0035785Y0025052D01*
X0035822Y0025109D01*
X0035862Y0025164D01*
X0035905Y0025216D01*
X0035951Y0025266D01*
X0035999Y0025314D01*
X0036051Y0025358D01*
X0036104Y0025400D01*
X0036160Y0025438D01*
X0036218Y0025473D01*
X0036278Y0025505D01*
X0036340Y0025533D01*
X0036403Y0025558D01*
X0036468Y0025579D01*
X0036534Y0025596D01*
X0036600Y0025610D01*
X0036667Y0025619D01*
X0036735Y0025625D01*
X0036803Y0025627D01*
X0029552Y0025627D02*
X0028524Y0025627D01*
X0028524Y0021927D01*
X0029552Y0021927D01*
X0029615Y0021929D01*
X0029678Y0021935D01*
X0029741Y0021945D01*
X0029803Y0021958D01*
X0029864Y0021975D01*
X0029923Y0021996D01*
X0029982Y0022021D01*
X0030038Y0022049D01*
X0030093Y0022081D01*
X0030146Y0022116D01*
X0030196Y0022154D01*
X0030245Y0022195D01*
X0030290Y0022239D01*
X0030333Y0022286D01*
X0030372Y0022335D01*
X0030409Y0022387D01*
X0030442Y0022441D01*
X0030472Y0022497D01*
X0030499Y0022554D01*
X0030522Y0022613D01*
X0030541Y0022674D01*
X0030556Y0022735D01*
X0030568Y0022797D01*
X0030576Y0022860D01*
X0030580Y0022923D01*
X0030580Y0022987D01*
X0030576Y0023050D01*
X0030568Y0023113D01*
X0030556Y0023175D01*
X0030541Y0023236D01*
X0030522Y0023297D01*
X0030499Y0023356D01*
X0030472Y0023413D01*
X0030442Y0023469D01*
X0030409Y0023523D01*
X0030372Y0023575D01*
X0030333Y0023624D01*
X0030290Y0023671D01*
X0030245Y0023715D01*
X0030196Y0023756D01*
X0030146Y0023794D01*
X0030093Y0023829D01*
X0030038Y0023861D01*
X0029982Y0023889D01*
X0029923Y0023914D01*
X0029864Y0023935D01*
X0029803Y0023952D01*
X0029741Y0023965D01*
X0029678Y0023975D01*
X0029615Y0023981D01*
X0029552Y0023983D01*
X0028524Y0023983D01*
X0029552Y0023983D02*
X0029608Y0023985D01*
X0029664Y0023991D01*
X0029719Y0024000D01*
X0029774Y0024013D01*
X0029827Y0024030D01*
X0029879Y0024051D01*
X0029930Y0024075D01*
X0029979Y0024103D01*
X0030026Y0024133D01*
X0030071Y0024167D01*
X0030113Y0024204D01*
X0030153Y0024244D01*
X0030190Y0024286D01*
X0030224Y0024331D01*
X0030254Y0024378D01*
X0030282Y0024427D01*
X0030306Y0024478D01*
X0030327Y0024530D01*
X0030344Y0024583D01*
X0030357Y0024638D01*
X0030366Y0024693D01*
X0030372Y0024749D01*
X0030374Y0024805D01*
X0030372Y0024861D01*
X0030366Y0024917D01*
X0030357Y0024972D01*
X0030344Y0025027D01*
X0030327Y0025080D01*
X0030306Y0025132D01*
X0030282Y0025183D01*
X0030254Y0025232D01*
X0030224Y0025279D01*
X0030190Y0025324D01*
X0030153Y0025366D01*
X0030113Y0025406D01*
X0030071Y0025443D01*
X0030026Y0025477D01*
X0029979Y0025507D01*
X0029930Y0025535D01*
X0029879Y0025559D01*
X0029827Y0025580D01*
X0029774Y0025597D01*
X0029719Y0025610D01*
X0029664Y0025619D01*
X0029608Y0025625D01*
X0029552Y0025627D01*
X0047911Y0023571D02*
X0047911Y0021927D01*
X0048219Y0019627D02*
X0049247Y0019627D01*
X0048219Y0019627D02*
X0048219Y0015927D01*
X0046738Y0015927D02*
X0045505Y0019627D01*
X0044271Y0015927D01*
X0044580Y0016852D02*
X0046430Y0016852D01*
X0048219Y0017571D02*
X0049247Y0017571D01*
X0049453Y0017571D02*
X0050275Y0015927D01*
X0051917Y0015927D02*
X0052945Y0015927D01*
X0051917Y0015927D02*
X0051917Y0019627D01*
X0052945Y0019627D01*
X0053007Y0019625D01*
X0053069Y0019620D01*
X0053130Y0019610D01*
X0053191Y0019597D01*
X0053251Y0019580D01*
X0053310Y0019560D01*
X0053367Y0019536D01*
X0053423Y0019509D01*
X0053477Y0019479D01*
X0053529Y0019445D01*
X0053579Y0019408D01*
X0053627Y0019368D01*
X0053672Y0019326D01*
X0053714Y0019281D01*
X0053754Y0019233D01*
X0053791Y0019183D01*
X0053825Y0019131D01*
X0053855Y0019077D01*
X0053882Y0019021D01*
X0053906Y0018964D01*
X0053926Y0018905D01*
X0053943Y0018845D01*
X0053956Y0018784D01*
X0053966Y0018723D01*
X0053971Y0018661D01*
X0053973Y0018599D01*
X0053972Y0018599D02*
X0053972Y0016955D01*
X0053973Y0016955D02*
X0053971Y0016893D01*
X0053966Y0016831D01*
X0053956Y0016770D01*
X0053943Y0016709D01*
X0053926Y0016649D01*
X0053906Y0016590D01*
X0053882Y0016533D01*
X0053855Y0016477D01*
X0053825Y0016423D01*
X0053791Y0016371D01*
X0053754Y0016321D01*
X0053714Y0016273D01*
X0053672Y0016228D01*
X0053627Y0016186D01*
X0053579Y0016146D01*
X0053529Y0016109D01*
X0053477Y0016075D01*
X0053423Y0016045D01*
X0053367Y0016018D01*
X0053310Y0015994D01*
X0053251Y0015974D01*
X0053191Y0015957D01*
X0053130Y0015944D01*
X0053069Y0015934D01*
X0053007Y0015929D01*
X0052945Y0015927D01*
X0049247Y0017571D02*
X0049310Y0017573D01*
X0049373Y0017579D01*
X0049436Y0017589D01*
X0049498Y0017602D01*
X0049559Y0017619D01*
X0049618Y0017640D01*
X0049677Y0017665D01*
X0049733Y0017693D01*
X0049788Y0017725D01*
X0049841Y0017760D01*
X0049891Y0017798D01*
X0049940Y0017839D01*
X0049985Y0017883D01*
X0050028Y0017930D01*
X0050067Y0017979D01*
X0050104Y0018031D01*
X0050137Y0018085D01*
X0050167Y0018141D01*
X0050194Y0018198D01*
X0050217Y0018257D01*
X0050236Y0018318D01*
X0050251Y0018379D01*
X0050263Y0018441D01*
X0050271Y0018504D01*
X0050275Y0018567D01*
X0050275Y0018631D01*
X0050271Y0018694D01*
X0050263Y0018757D01*
X0050251Y0018819D01*
X0050236Y0018880D01*
X0050217Y0018941D01*
X0050194Y0019000D01*
X0050167Y0019057D01*
X0050137Y0019113D01*
X0050104Y0019167D01*
X0050067Y0019219D01*
X0050028Y0019268D01*
X0049985Y0019315D01*
X0049940Y0019359D01*
X0049891Y0019400D01*
X0049841Y0019438D01*
X0049788Y0019473D01*
X0049733Y0019505D01*
X0049677Y0019533D01*
X0049618Y0019558D01*
X0049559Y0019579D01*
X0049498Y0019596D01*
X0049436Y0019609D01*
X0049373Y0019619D01*
X0049310Y0019625D01*
X0049247Y0019627D01*
X0042932Y0018599D02*
X0042932Y0016955D01*
X0042933Y0016955D02*
X0042931Y0016892D01*
X0042925Y0016829D01*
X0042915Y0016766D01*
X0042902Y0016704D01*
X0042885Y0016643D01*
X0042864Y0016584D01*
X0042839Y0016525D01*
X0042811Y0016469D01*
X0042779Y0016414D01*
X0042744Y0016361D01*
X0042706Y0016311D01*
X0042665Y0016262D01*
X0042621Y0016217D01*
X0042574Y0016174D01*
X0042525Y0016135D01*
X0042473Y0016098D01*
X0042419Y0016065D01*
X0042363Y0016035D01*
X0042306Y0016008D01*
X0042247Y0015985D01*
X0042186Y0015966D01*
X0042125Y0015951D01*
X0042063Y0015939D01*
X0042000Y0015931D01*
X0041937Y0015927D01*
X0041873Y0015927D01*
X0041810Y0015931D01*
X0041747Y0015939D01*
X0041685Y0015951D01*
X0041624Y0015966D01*
X0041563Y0015985D01*
X0041504Y0016008D01*
X0041447Y0016035D01*
X0041391Y0016065D01*
X0041337Y0016098D01*
X0041285Y0016135D01*
X0041236Y0016174D01*
X0041189Y0016217D01*
X0041145Y0016262D01*
X0041104Y0016311D01*
X0041066Y0016361D01*
X0041031Y0016414D01*
X0040999Y0016469D01*
X0040971Y0016525D01*
X0040946Y0016584D01*
X0040925Y0016643D01*
X0040908Y0016704D01*
X0040895Y0016766D01*
X0040885Y0016829D01*
X0040879Y0016892D01*
X0040877Y0016955D01*
X0040877Y0018599D01*
X0040879Y0018662D01*
X0040885Y0018725D01*
X0040895Y0018788D01*
X0040908Y0018850D01*
X0040925Y0018911D01*
X0040946Y0018970D01*
X0040971Y0019029D01*
X0040999Y0019085D01*
X0041031Y0019140D01*
X0041066Y0019193D01*
X0041104Y0019243D01*
X0041145Y0019292D01*
X0041189Y0019337D01*
X0041236Y0019380D01*
X0041285Y0019419D01*
X0041337Y0019456D01*
X0041391Y0019489D01*
X0041447Y0019519D01*
X0041504Y0019546D01*
X0041563Y0019569D01*
X0041624Y0019588D01*
X0041685Y0019603D01*
X0041747Y0019615D01*
X0041810Y0019623D01*
X0041873Y0019627D01*
X0041937Y0019627D01*
X0042000Y0019623D01*
X0042063Y0019615D01*
X0042125Y0019603D01*
X0042186Y0019588D01*
X0042247Y0019569D01*
X0042306Y0019546D01*
X0042363Y0019519D01*
X0042419Y0019489D01*
X0042473Y0019456D01*
X0042525Y0019419D01*
X0042574Y0019380D01*
X0042621Y0019337D01*
X0042665Y0019292D01*
X0042706Y0019243D01*
X0042744Y0019193D01*
X0042779Y0019140D01*
X0042811Y0019085D01*
X0042839Y0019029D01*
X0042864Y0018970D01*
X0042885Y0018911D01*
X0042902Y0018850D01*
X0042915Y0018788D01*
X0042925Y0018725D01*
X0042931Y0018662D01*
X0042933Y0018599D01*
X0038476Y0017983D02*
X0038532Y0017985D01*
X0038588Y0017991D01*
X0038643Y0018000D01*
X0038698Y0018013D01*
X0038751Y0018030D01*
X0038803Y0018051D01*
X0038854Y0018075D01*
X0038903Y0018103D01*
X0038950Y0018133D01*
X0038995Y0018167D01*
X0039037Y0018204D01*
X0039077Y0018244D01*
X0039114Y0018286D01*
X0039148Y0018331D01*
X0039178Y0018378D01*
X0039206Y0018427D01*
X0039230Y0018478D01*
X0039251Y0018530D01*
X0039268Y0018583D01*
X0039281Y0018638D01*
X0039290Y0018693D01*
X0039296Y0018749D01*
X0039298Y0018805D01*
X0039296Y0018861D01*
X0039290Y0018917D01*
X0039281Y0018972D01*
X0039268Y0019027D01*
X0039251Y0019080D01*
X0039230Y0019132D01*
X0039206Y0019183D01*
X0039178Y0019232D01*
X0039148Y0019279D01*
X0039114Y0019324D01*
X0039077Y0019366D01*
X0039037Y0019406D01*
X0038995Y0019443D01*
X0038950Y0019477D01*
X0038903Y0019507D01*
X0038854Y0019535D01*
X0038803Y0019559D01*
X0038751Y0019580D01*
X0038698Y0019597D01*
X0038643Y0019610D01*
X0038588Y0019619D01*
X0038532Y0019625D01*
X0038476Y0019627D01*
X0037449Y0019627D01*
X0037449Y0015927D01*
X0038476Y0015927D01*
X0038539Y0015929D01*
X0038602Y0015935D01*
X0038665Y0015945D01*
X0038727Y0015958D01*
X0038788Y0015975D01*
X0038847Y0015996D01*
X0038906Y0016021D01*
X0038962Y0016049D01*
X0039017Y0016081D01*
X0039070Y0016116D01*
X0039120Y0016154D01*
X0039169Y0016195D01*
X0039214Y0016239D01*
X0039257Y0016286D01*
X0039296Y0016335D01*
X0039333Y0016387D01*
X0039366Y0016441D01*
X0039396Y0016497D01*
X0039423Y0016554D01*
X0039446Y0016613D01*
X0039465Y0016674D01*
X0039480Y0016735D01*
X0039492Y0016797D01*
X0039500Y0016860D01*
X0039504Y0016923D01*
X0039504Y0016987D01*
X0039500Y0017050D01*
X0039492Y0017113D01*
X0039480Y0017175D01*
X0039465Y0017236D01*
X0039446Y0017297D01*
X0039423Y0017356D01*
X0039396Y0017413D01*
X0039366Y0017469D01*
X0039333Y0017523D01*
X0039296Y0017575D01*
X0039257Y0017624D01*
X0039214Y0017671D01*
X0039169Y0017715D01*
X0039120Y0017756D01*
X0039070Y0017794D01*
X0039017Y0017829D01*
X0038962Y0017861D01*
X0038906Y0017889D01*
X0038847Y0017914D01*
X0038788Y0017935D01*
X0038727Y0017952D01*
X0038665Y0017965D01*
X0038602Y0017975D01*
X0038539Y0017981D01*
X0038476Y0017983D01*
X0037449Y0017983D01*
X0033692Y0017983D02*
X0033692Y0015927D01*
X0032459Y0015927D01*
X0032403Y0015929D01*
X0032347Y0015935D01*
X0032292Y0015944D01*
X0032237Y0015957D01*
X0032184Y0015974D01*
X0032132Y0015995D01*
X0032081Y0016019D01*
X0032032Y0016047D01*
X0031985Y0016077D01*
X0031940Y0016111D01*
X0031898Y0016148D01*
X0031858Y0016188D01*
X0031821Y0016230D01*
X0031787Y0016275D01*
X0031757Y0016322D01*
X0031729Y0016371D01*
X0031705Y0016422D01*
X0031684Y0016474D01*
X0031667Y0016527D01*
X0031654Y0016582D01*
X0031645Y0016637D01*
X0031639Y0016693D01*
X0031637Y0016749D01*
X0031637Y0018805D01*
X0031639Y0018861D01*
X0031645Y0018917D01*
X0031654Y0018972D01*
X0031667Y0019027D01*
X0031684Y0019080D01*
X0031705Y0019132D01*
X0031729Y0019183D01*
X0031757Y0019232D01*
X0031787Y0019279D01*
X0031821Y0019324D01*
X0031858Y0019366D01*
X0031898Y0019406D01*
X0031940Y0019443D01*
X0031985Y0019477D01*
X0032032Y0019507D01*
X0032081Y0019535D01*
X0032132Y0019559D01*
X0032184Y0019580D01*
X0032237Y0019597D01*
X0032292Y0019610D01*
X0032347Y0019619D01*
X0032403Y0019625D01*
X0032459Y0019627D01*
X0033692Y0019627D01*
X0030168Y0019627D02*
X0028524Y0019627D01*
X0028524Y0015927D01*
X0028524Y0017983D02*
X0030168Y0017983D01*
X0033076Y0017983D02*
X0033692Y0017983D01*
D12*
X0025322Y0010677D02*
X0025322Y0009477D01*
X0025922Y0010077D02*
X0024722Y0010077D01*
X0024222Y0008777D02*
X0024222Y0007777D01*
X0024222Y0008277D02*
X0026022Y0008277D01*
X0026022Y0007197D02*
X0024222Y0006597D01*
X0026022Y0005997D01*
X0025572Y0006147D02*
X0025572Y0007047D01*
X0026022Y0004887D02*
X0026020Y0004931D01*
X0026014Y0004974D01*
X0026005Y0005016D01*
X0025992Y0005058D01*
X0025975Y0005098D01*
X0025955Y0005137D01*
X0025932Y0005174D01*
X0025905Y0005208D01*
X0025876Y0005241D01*
X0025843Y0005270D01*
X0025809Y0005297D01*
X0025772Y0005320D01*
X0025733Y0005340D01*
X0025693Y0005357D01*
X0025651Y0005370D01*
X0025609Y0005379D01*
X0025566Y0005385D01*
X0025522Y0005387D01*
X0025478Y0005385D01*
X0025435Y0005379D01*
X0025393Y0005370D01*
X0025351Y0005357D01*
X0025311Y0005340D01*
X0025272Y0005320D01*
X0025235Y0005297D01*
X0025201Y0005270D01*
X0025168Y0005241D01*
X0025139Y0005208D01*
X0025112Y0005174D01*
X0025089Y0005137D01*
X0025069Y0005098D01*
X0025052Y0005058D01*
X0025039Y0005016D01*
X0025030Y0004974D01*
X0025024Y0004931D01*
X0025022Y0004887D01*
X0025022Y0004387D01*
X0025022Y0004887D02*
X0025020Y0004926D01*
X0025014Y0004965D01*
X0025005Y0005003D01*
X0024992Y0005040D01*
X0024975Y0005076D01*
X0024955Y0005109D01*
X0024931Y0005141D01*
X0024905Y0005170D01*
X0024876Y0005196D01*
X0024844Y0005220D01*
X0024811Y0005240D01*
X0024775Y0005257D01*
X0024738Y0005270D01*
X0024700Y0005279D01*
X0024661Y0005285D01*
X0024622Y0005287D01*
X0024583Y0005285D01*
X0024544Y0005279D01*
X0024506Y0005270D01*
X0024469Y0005257D01*
X0024433Y0005240D01*
X0024400Y0005220D01*
X0024368Y0005196D01*
X0024339Y0005170D01*
X0024313Y0005141D01*
X0024289Y0005109D01*
X0024269Y0005076D01*
X0024252Y0005040D01*
X0024239Y0005003D01*
X0024230Y0004965D01*
X0024224Y0004926D01*
X0024222Y0004887D01*
X0024222Y0004387D01*
X0026022Y0004387D01*
X0026022Y0004887D01*
X0026022Y0026647D02*
X0024222Y0026647D01*
X0024222Y0027147D01*
X0024224Y0027191D01*
X0024230Y0027234D01*
X0024239Y0027276D01*
X0024252Y0027318D01*
X0024269Y0027358D01*
X0024289Y0027397D01*
X0024312Y0027434D01*
X0024339Y0027468D01*
X0024368Y0027501D01*
X0024401Y0027530D01*
X0024435Y0027557D01*
X0024472Y0027580D01*
X0024511Y0027600D01*
X0024551Y0027617D01*
X0024593Y0027630D01*
X0024635Y0027639D01*
X0024678Y0027645D01*
X0024722Y0027647D01*
X0024766Y0027645D01*
X0024809Y0027639D01*
X0024851Y0027630D01*
X0024893Y0027617D01*
X0024933Y0027600D01*
X0024972Y0027580D01*
X0025009Y0027557D01*
X0025043Y0027530D01*
X0025076Y0027501D01*
X0025105Y0027468D01*
X0025132Y0027434D01*
X0025155Y0027397D01*
X0025175Y0027358D01*
X0025192Y0027318D01*
X0025205Y0027276D01*
X0025214Y0027234D01*
X0025220Y0027191D01*
X0025222Y0027147D01*
X0025222Y0026647D01*
X0025572Y0028407D02*
X0025572Y0029307D01*
X0026022Y0029457D02*
X0024222Y0028857D01*
X0026022Y0028257D01*
X0025622Y0030151D02*
X0024622Y0030151D01*
X0024583Y0030153D01*
X0024544Y0030159D01*
X0024506Y0030168D01*
X0024469Y0030181D01*
X0024433Y0030198D01*
X0024400Y0030218D01*
X0024368Y0030242D01*
X0024339Y0030268D01*
X0024313Y0030297D01*
X0024289Y0030329D01*
X0024269Y0030362D01*
X0024252Y0030398D01*
X0024239Y0030435D01*
X0024230Y0030473D01*
X0024224Y0030512D01*
X0024222Y0030551D01*
X0024222Y0030951D01*
X0025622Y0030151D02*
X0025661Y0030153D01*
X0025700Y0030159D01*
X0025738Y0030168D01*
X0025775Y0030181D01*
X0025811Y0030198D01*
X0025844Y0030218D01*
X0025876Y0030242D01*
X0025905Y0030268D01*
X0025931Y0030297D01*
X0025955Y0030329D01*
X0025975Y0030362D01*
X0025992Y0030398D01*
X0026005Y0030435D01*
X0026014Y0030473D01*
X0026020Y0030512D01*
X0026022Y0030551D01*
X0026022Y0030951D01*
X0026022Y0031747D02*
X0024222Y0031747D01*
X0024922Y0032147D02*
X0026022Y0032747D01*
X0025322Y0033477D02*
X0025322Y0034677D01*
X0025922Y0034077D02*
X0024722Y0034077D01*
X0024222Y0032747D02*
X0025322Y0031747D01*
X0103222Y0029747D02*
X0104322Y0028747D01*
X0103922Y0029147D02*
X0105022Y0029747D01*
X0105022Y0028747D02*
X0103222Y0028747D01*
X0103222Y0027951D02*
X0103222Y0027551D01*
X0103224Y0027512D01*
X0103230Y0027473D01*
X0103239Y0027435D01*
X0103252Y0027398D01*
X0103269Y0027362D01*
X0103289Y0027329D01*
X0103313Y0027297D01*
X0103339Y0027268D01*
X0103368Y0027242D01*
X0103400Y0027218D01*
X0103433Y0027198D01*
X0103469Y0027181D01*
X0103506Y0027168D01*
X0103544Y0027159D01*
X0103583Y0027153D01*
X0103622Y0027151D01*
X0104622Y0027151D01*
X0104661Y0027153D01*
X0104700Y0027159D01*
X0104738Y0027168D01*
X0104775Y0027181D01*
X0104811Y0027198D01*
X0104844Y0027218D01*
X0104876Y0027242D01*
X0104905Y0027268D01*
X0104931Y0027297D01*
X0104955Y0027329D01*
X0104975Y0027362D01*
X0104992Y0027398D01*
X0105005Y0027435D01*
X0105014Y0027473D01*
X0105020Y0027512D01*
X0105022Y0027551D01*
X0105022Y0027951D01*
X0105022Y0026457D02*
X0103222Y0025857D01*
X0105022Y0025257D01*
X0104572Y0025407D02*
X0104572Y0026307D01*
X0104222Y0024147D02*
X0104222Y0023647D01*
X0104222Y0024147D02*
X0104220Y0024191D01*
X0104214Y0024234D01*
X0104205Y0024276D01*
X0104192Y0024318D01*
X0104175Y0024358D01*
X0104155Y0024397D01*
X0104132Y0024434D01*
X0104105Y0024468D01*
X0104076Y0024501D01*
X0104043Y0024530D01*
X0104009Y0024557D01*
X0103972Y0024580D01*
X0103933Y0024600D01*
X0103893Y0024617D01*
X0103851Y0024630D01*
X0103809Y0024639D01*
X0103766Y0024645D01*
X0103722Y0024647D01*
X0103678Y0024645D01*
X0103635Y0024639D01*
X0103593Y0024630D01*
X0103551Y0024617D01*
X0103511Y0024600D01*
X0103472Y0024580D01*
X0103435Y0024557D01*
X0103401Y0024530D01*
X0103368Y0024501D01*
X0103339Y0024468D01*
X0103312Y0024434D01*
X0103289Y0024397D01*
X0103269Y0024358D01*
X0103252Y0024318D01*
X0103239Y0024276D01*
X0103230Y0024234D01*
X0103224Y0024191D01*
X0103222Y0024147D01*
X0103222Y0023647D01*
X0105022Y0023647D01*
X0104322Y0030477D02*
X0104322Y0031677D01*
X0104322Y0009677D02*
X0104322Y0008477D01*
X0103222Y0007777D02*
X0103222Y0006777D01*
X0103222Y0007277D02*
X0105022Y0007277D01*
X0105022Y0006197D02*
X0103222Y0005597D01*
X0105022Y0004997D01*
X0104572Y0005147D02*
X0104572Y0006047D01*
X0105022Y0003887D02*
X0105020Y0003931D01*
X0105014Y0003974D01*
X0105005Y0004016D01*
X0104992Y0004058D01*
X0104975Y0004098D01*
X0104955Y0004137D01*
X0104932Y0004174D01*
X0104905Y0004208D01*
X0104876Y0004241D01*
X0104843Y0004270D01*
X0104809Y0004297D01*
X0104772Y0004320D01*
X0104733Y0004340D01*
X0104693Y0004357D01*
X0104651Y0004370D01*
X0104609Y0004379D01*
X0104566Y0004385D01*
X0104522Y0004387D01*
X0104478Y0004385D01*
X0104435Y0004379D01*
X0104393Y0004370D01*
X0104351Y0004357D01*
X0104311Y0004340D01*
X0104272Y0004320D01*
X0104235Y0004297D01*
X0104201Y0004270D01*
X0104168Y0004241D01*
X0104139Y0004208D01*
X0104112Y0004174D01*
X0104089Y0004137D01*
X0104069Y0004098D01*
X0104052Y0004058D01*
X0104039Y0004016D01*
X0104030Y0003974D01*
X0104024Y0003931D01*
X0104022Y0003887D01*
X0104022Y0003387D01*
X0104022Y0003887D02*
X0104020Y0003926D01*
X0104014Y0003965D01*
X0104005Y0004003D01*
X0103992Y0004040D01*
X0103975Y0004076D01*
X0103955Y0004109D01*
X0103931Y0004141D01*
X0103905Y0004170D01*
X0103876Y0004196D01*
X0103844Y0004220D01*
X0103811Y0004240D01*
X0103775Y0004257D01*
X0103738Y0004270D01*
X0103700Y0004279D01*
X0103661Y0004285D01*
X0103622Y0004287D01*
X0103583Y0004285D01*
X0103544Y0004279D01*
X0103506Y0004270D01*
X0103469Y0004257D01*
X0103433Y0004240D01*
X0103400Y0004220D01*
X0103368Y0004196D01*
X0103339Y0004170D01*
X0103313Y0004141D01*
X0103289Y0004109D01*
X0103269Y0004076D01*
X0103252Y0004040D01*
X0103239Y0004003D01*
X0103230Y0003965D01*
X0103224Y0003926D01*
X0103222Y0003887D01*
X0103222Y0003387D01*
X0105022Y0003387D01*
X0105022Y0003887D01*
D13*
X0091992Y0006279D02*
X0091103Y0006279D01*
X0091858Y0007168D01*
X0091592Y0007880D02*
X0091549Y0007878D01*
X0091506Y0007873D01*
X0091464Y0007864D01*
X0091423Y0007851D01*
X0091383Y0007835D01*
X0091344Y0007816D01*
X0091307Y0007794D01*
X0091273Y0007769D01*
X0091240Y0007740D01*
X0091210Y0007710D01*
X0091182Y0007676D01*
X0091158Y0007641D01*
X0091136Y0007604D01*
X0091118Y0007565D01*
X0091103Y0007524D01*
X0091859Y0007168D02*
X0091885Y0007196D01*
X0091910Y0007226D01*
X0091931Y0007258D01*
X0091949Y0007292D01*
X0091964Y0007328D01*
X0091976Y0007364D01*
X0091985Y0007402D01*
X0091990Y0007440D01*
X0091992Y0007479D01*
X0091990Y0007518D01*
X0091984Y0007557D01*
X0091975Y0007595D01*
X0091962Y0007632D01*
X0091945Y0007668D01*
X0091925Y0007701D01*
X0091901Y0007733D01*
X0091875Y0007762D01*
X0091846Y0007788D01*
X0091814Y0007812D01*
X0091781Y0007832D01*
X0091745Y0007849D01*
X0091708Y0007862D01*
X0091670Y0007871D01*
X0091631Y0007877D01*
X0091592Y0007879D01*
X0089768Y0007879D02*
X0089323Y0007879D01*
X0089323Y0006279D01*
X0090212Y0006279D02*
X0089856Y0006991D01*
X0089768Y0006991D02*
X0089323Y0006991D01*
X0089768Y0006991D02*
X0089809Y0006993D01*
X0089850Y0006999D01*
X0089890Y0007008D01*
X0089928Y0007021D01*
X0089966Y0007038D01*
X0090002Y0007058D01*
X0090036Y0007081D01*
X0090067Y0007107D01*
X0090096Y0007136D01*
X0090122Y0007167D01*
X0090145Y0007201D01*
X0090165Y0007237D01*
X0090182Y0007275D01*
X0090195Y0007313D01*
X0090204Y0007353D01*
X0090210Y0007394D01*
X0090212Y0007435D01*
X0090210Y0007476D01*
X0090204Y0007517D01*
X0090195Y0007557D01*
X0090182Y0007595D01*
X0090165Y0007633D01*
X0090145Y0007669D01*
X0090122Y0007703D01*
X0090096Y0007734D01*
X0090067Y0007763D01*
X0090036Y0007789D01*
X0090002Y0007812D01*
X0089966Y0007832D01*
X0089928Y0007849D01*
X0089890Y0007862D01*
X0089850Y0007871D01*
X0089809Y0007877D01*
X0089768Y0007879D01*
X0080851Y0005416D02*
X0080851Y0004972D01*
X0080851Y0005416D02*
X0080849Y0005457D01*
X0080843Y0005498D01*
X0080834Y0005538D01*
X0080821Y0005576D01*
X0080804Y0005614D01*
X0080784Y0005650D01*
X0080761Y0005684D01*
X0080735Y0005715D01*
X0080706Y0005744D01*
X0080675Y0005770D01*
X0080641Y0005793D01*
X0080605Y0005813D01*
X0080567Y0005830D01*
X0080529Y0005843D01*
X0080489Y0005852D01*
X0080448Y0005858D01*
X0080407Y0005860D01*
X0080366Y0005858D01*
X0080325Y0005852D01*
X0080285Y0005843D01*
X0080247Y0005830D01*
X0080209Y0005813D01*
X0080173Y0005793D01*
X0080139Y0005770D01*
X0080108Y0005744D01*
X0080079Y0005715D01*
X0080053Y0005684D01*
X0080030Y0005650D01*
X0080010Y0005614D01*
X0079993Y0005576D01*
X0079980Y0005538D01*
X0079971Y0005498D01*
X0079965Y0005457D01*
X0079963Y0005416D01*
X0079962Y0005505D02*
X0079962Y0005149D01*
X0079963Y0005505D02*
X0079961Y0005542D01*
X0079955Y0005579D01*
X0079946Y0005615D01*
X0079932Y0005650D01*
X0079915Y0005683D01*
X0079895Y0005714D01*
X0079872Y0005743D01*
X0079845Y0005770D01*
X0079816Y0005793D01*
X0079785Y0005813D01*
X0079752Y0005830D01*
X0079717Y0005844D01*
X0079681Y0005853D01*
X0079644Y0005859D01*
X0079607Y0005861D01*
X0079570Y0005859D01*
X0079533Y0005853D01*
X0079497Y0005844D01*
X0079462Y0005830D01*
X0079429Y0005813D01*
X0079398Y0005793D01*
X0079369Y0005770D01*
X0079342Y0005743D01*
X0079319Y0005714D01*
X0079299Y0005683D01*
X0079282Y0005650D01*
X0079268Y0005615D01*
X0079259Y0005579D01*
X0079253Y0005542D01*
X0079251Y0005505D01*
X0079251Y0004972D01*
X0079251Y0004174D02*
X0079251Y0003818D01*
X0079253Y0003781D01*
X0079259Y0003744D01*
X0079268Y0003708D01*
X0079282Y0003673D01*
X0079299Y0003640D01*
X0079319Y0003609D01*
X0079342Y0003580D01*
X0079369Y0003553D01*
X0079398Y0003530D01*
X0079429Y0003510D01*
X0079462Y0003493D01*
X0079497Y0003479D01*
X0079533Y0003470D01*
X0079570Y0003464D01*
X0079607Y0003462D01*
X0079607Y0003463D02*
X0080496Y0003463D01*
X0080496Y0003462D02*
X0080533Y0003464D01*
X0080570Y0003470D01*
X0080606Y0003479D01*
X0080641Y0003493D01*
X0080674Y0003510D01*
X0080705Y0003530D01*
X0080734Y0003553D01*
X0080761Y0003580D01*
X0080784Y0003609D01*
X0080804Y0003640D01*
X0080821Y0003673D01*
X0080835Y0003708D01*
X0080844Y0003744D01*
X0080850Y0003781D01*
X0080852Y0003818D01*
X0080851Y0003818D02*
X0080851Y0004174D01*
X0080393Y0007193D02*
X0079504Y0007193D01*
X0079949Y0007193D02*
X0079949Y0008793D01*
X0079504Y0008437D01*
X0078706Y0008793D02*
X0078351Y0008793D01*
X0078314Y0008791D01*
X0078277Y0008785D01*
X0078241Y0008776D01*
X0078206Y0008762D01*
X0078173Y0008745D01*
X0078142Y0008725D01*
X0078113Y0008702D01*
X0078086Y0008675D01*
X0078063Y0008646D01*
X0078043Y0008615D01*
X0078026Y0008582D01*
X0078012Y0008547D01*
X0078003Y0008511D01*
X0077997Y0008474D01*
X0077995Y0008437D01*
X0077995Y0007548D01*
X0077997Y0007511D01*
X0078003Y0007474D01*
X0078012Y0007438D01*
X0078026Y0007403D01*
X0078043Y0007370D01*
X0078063Y0007339D01*
X0078086Y0007310D01*
X0078113Y0007283D01*
X0078142Y0007260D01*
X0078173Y0007240D01*
X0078206Y0007223D01*
X0078241Y0007209D01*
X0078277Y0007200D01*
X0078314Y0007194D01*
X0078351Y0007192D01*
X0078351Y0007193D02*
X0078706Y0007193D01*
X0056122Y0015755D02*
X0055233Y0015755D01*
X0055233Y0015754D02*
X0055196Y0015756D01*
X0055159Y0015762D01*
X0055123Y0015771D01*
X0055088Y0015785D01*
X0055055Y0015802D01*
X0055024Y0015822D01*
X0054995Y0015845D01*
X0054968Y0015872D01*
X0054945Y0015901D01*
X0054925Y0015932D01*
X0054908Y0015965D01*
X0054894Y0016000D01*
X0054885Y0016036D01*
X0054879Y0016073D01*
X0054877Y0016110D01*
X0054878Y0016110D02*
X0054878Y0016466D01*
X0056122Y0015754D02*
X0056159Y0015756D01*
X0056196Y0015762D01*
X0056232Y0015771D01*
X0056267Y0015785D01*
X0056300Y0015802D01*
X0056331Y0015822D01*
X0056360Y0015845D01*
X0056387Y0015872D01*
X0056410Y0015901D01*
X0056430Y0015932D01*
X0056447Y0015965D01*
X0056461Y0016000D01*
X0056470Y0016036D01*
X0056476Y0016073D01*
X0056478Y0016110D01*
X0056478Y0016466D01*
X0056122Y0017264D02*
X0056122Y0018153D01*
X0055767Y0017886D02*
X0056478Y0017886D01*
X0056122Y0017264D02*
X0054878Y0017619D01*
X0055223Y0019397D02*
X0056112Y0019397D01*
X0056149Y0019399D01*
X0056186Y0019405D01*
X0056222Y0019414D01*
X0056257Y0019428D01*
X0056290Y0019445D01*
X0056321Y0019465D01*
X0056350Y0019488D01*
X0056377Y0019515D01*
X0056400Y0019544D01*
X0056420Y0019575D01*
X0056437Y0019608D01*
X0056451Y0019643D01*
X0056460Y0019679D01*
X0056466Y0019716D01*
X0056468Y0019753D01*
X0056467Y0019753D02*
X0056467Y0020108D01*
X0055223Y0019397D02*
X0055186Y0019399D01*
X0055149Y0019405D01*
X0055113Y0019414D01*
X0055078Y0019428D01*
X0055045Y0019445D01*
X0055014Y0019465D01*
X0054985Y0019488D01*
X0054958Y0019515D01*
X0054935Y0019544D01*
X0054915Y0019575D01*
X0054898Y0019608D01*
X0054884Y0019643D01*
X0054875Y0019679D01*
X0054869Y0019716D01*
X0054867Y0019753D01*
X0054867Y0020108D01*
X0054867Y0020906D02*
X0054867Y0021795D01*
X0055578Y0021440D02*
X0055578Y0020906D01*
X0054867Y0020906D01*
X0056467Y0020906D02*
X0056467Y0021440D01*
X0056468Y0021440D02*
X0056466Y0021477D01*
X0056460Y0021514D01*
X0056451Y0021550D01*
X0056437Y0021585D01*
X0056420Y0021618D01*
X0056400Y0021649D01*
X0056377Y0021678D01*
X0056350Y0021705D01*
X0056321Y0021728D01*
X0056290Y0021748D01*
X0056257Y0021765D01*
X0056222Y0021779D01*
X0056186Y0021788D01*
X0056149Y0021794D01*
X0056112Y0021796D01*
X0056112Y0021795D02*
X0055934Y0021795D01*
X0055934Y0021796D02*
X0055897Y0021794D01*
X0055860Y0021788D01*
X0055824Y0021779D01*
X0055789Y0021765D01*
X0055756Y0021748D01*
X0055725Y0021728D01*
X0055696Y0021705D01*
X0055669Y0021678D01*
X0055646Y0021649D01*
X0055626Y0021618D01*
X0055609Y0021585D01*
X0055595Y0021550D01*
X0055586Y0021514D01*
X0055580Y0021477D01*
X0055578Y0021440D01*
X0080773Y0023698D02*
X0080773Y0024054D01*
X0080772Y0023698D02*
X0080774Y0023661D01*
X0080780Y0023624D01*
X0080789Y0023588D01*
X0080803Y0023553D01*
X0080820Y0023520D01*
X0080840Y0023489D01*
X0080863Y0023460D01*
X0080890Y0023433D01*
X0080919Y0023410D01*
X0080950Y0023390D01*
X0080983Y0023373D01*
X0081018Y0023359D01*
X0081054Y0023350D01*
X0081091Y0023344D01*
X0081128Y0023342D01*
X0081128Y0023343D02*
X0082017Y0023343D01*
X0082017Y0023342D02*
X0082054Y0023344D01*
X0082091Y0023350D01*
X0082127Y0023359D01*
X0082162Y0023373D01*
X0082195Y0023390D01*
X0082226Y0023410D01*
X0082255Y0023433D01*
X0082282Y0023460D01*
X0082305Y0023489D01*
X0082325Y0023520D01*
X0082342Y0023553D01*
X0082356Y0023588D01*
X0082365Y0023624D01*
X0082371Y0023661D01*
X0082373Y0023698D01*
X0082373Y0024054D01*
X0081928Y0024852D02*
X0081484Y0024852D01*
X0081484Y0025385D01*
X0081484Y0024852D02*
X0081431Y0024854D01*
X0081378Y0024860D01*
X0081326Y0024870D01*
X0081274Y0024884D01*
X0081224Y0024901D01*
X0081176Y0024922D01*
X0081129Y0024947D01*
X0081083Y0024976D01*
X0081041Y0025007D01*
X0081000Y0025042D01*
X0080963Y0025079D01*
X0080928Y0025120D01*
X0080897Y0025162D01*
X0080868Y0025207D01*
X0080843Y0025255D01*
X0080822Y0025303D01*
X0080805Y0025353D01*
X0080791Y0025405D01*
X0080781Y0025457D01*
X0080775Y0025510D01*
X0080773Y0025563D01*
X0081483Y0025385D02*
X0081485Y0025420D01*
X0081490Y0025454D01*
X0081498Y0025488D01*
X0081510Y0025521D01*
X0081525Y0025553D01*
X0081543Y0025583D01*
X0081564Y0025611D01*
X0081587Y0025637D01*
X0081613Y0025660D01*
X0081641Y0025681D01*
X0081671Y0025699D01*
X0081703Y0025714D01*
X0081736Y0025726D01*
X0081770Y0025734D01*
X0081804Y0025739D01*
X0081839Y0025741D01*
X0081928Y0025741D01*
X0081928Y0025740D02*
X0081969Y0025738D01*
X0082010Y0025732D01*
X0082050Y0025723D01*
X0082088Y0025710D01*
X0082126Y0025693D01*
X0082162Y0025673D01*
X0082196Y0025650D01*
X0082227Y0025624D01*
X0082256Y0025595D01*
X0082282Y0025564D01*
X0082305Y0025530D01*
X0082325Y0025494D01*
X0082342Y0025456D01*
X0082355Y0025418D01*
X0082364Y0025378D01*
X0082370Y0025337D01*
X0082372Y0025296D01*
X0082370Y0025255D01*
X0082364Y0025214D01*
X0082355Y0025174D01*
X0082342Y0025136D01*
X0082325Y0025098D01*
X0082305Y0025062D01*
X0082282Y0025028D01*
X0082256Y0024997D01*
X0082227Y0024968D01*
X0082196Y0024942D01*
X0082162Y0024919D01*
X0082126Y0024899D01*
X0082088Y0024882D01*
X0082050Y0024869D01*
X0082010Y0024860D01*
X0081969Y0024854D01*
X0081928Y0024852D01*
X0086656Y0021135D02*
X0087545Y0020379D01*
X0087545Y0021268D01*
X0086301Y0020379D02*
X0086260Y0020394D01*
X0086221Y0020412D01*
X0086184Y0020434D01*
X0086149Y0020458D01*
X0086115Y0020486D01*
X0086085Y0020516D01*
X0086056Y0020549D01*
X0086031Y0020583D01*
X0086009Y0020620D01*
X0085990Y0020659D01*
X0085974Y0020699D01*
X0085961Y0020740D01*
X0085952Y0020782D01*
X0085947Y0020825D01*
X0085945Y0020868D01*
X0085947Y0020907D01*
X0085953Y0020946D01*
X0085962Y0020984D01*
X0085975Y0021021D01*
X0085992Y0021057D01*
X0086012Y0021090D01*
X0086036Y0021122D01*
X0086062Y0021151D01*
X0086091Y0021177D01*
X0086123Y0021201D01*
X0086156Y0021221D01*
X0086192Y0021238D01*
X0086229Y0021251D01*
X0086267Y0021260D01*
X0086306Y0021266D01*
X0086345Y0021268D01*
X0086384Y0021266D01*
X0086422Y0021261D01*
X0086460Y0021252D01*
X0086496Y0021240D01*
X0086532Y0021225D01*
X0086566Y0021207D01*
X0086598Y0021186D01*
X0086628Y0021161D01*
X0086656Y0021135D01*
X0089112Y0020128D02*
X0089557Y0020128D01*
X0089112Y0020128D02*
X0089112Y0018528D01*
X0089112Y0019239D02*
X0089557Y0019239D01*
X0089645Y0019239D02*
X0090001Y0018528D01*
X0090892Y0018528D02*
X0091781Y0018528D01*
X0091336Y0018528D02*
X0091336Y0020128D01*
X0090892Y0019772D01*
X0089557Y0020127D02*
X0089598Y0020125D01*
X0089639Y0020119D01*
X0089679Y0020110D01*
X0089717Y0020097D01*
X0089755Y0020080D01*
X0089791Y0020060D01*
X0089825Y0020037D01*
X0089856Y0020011D01*
X0089885Y0019982D01*
X0089911Y0019951D01*
X0089934Y0019917D01*
X0089954Y0019881D01*
X0089971Y0019843D01*
X0089984Y0019805D01*
X0089993Y0019765D01*
X0089999Y0019724D01*
X0090001Y0019683D01*
X0089999Y0019642D01*
X0089993Y0019601D01*
X0089984Y0019561D01*
X0089971Y0019523D01*
X0089954Y0019485D01*
X0089934Y0019449D01*
X0089911Y0019415D01*
X0089885Y0019384D01*
X0089856Y0019355D01*
X0089825Y0019329D01*
X0089791Y0019306D01*
X0089755Y0019286D01*
X0089717Y0019269D01*
X0089679Y0019256D01*
X0089639Y0019247D01*
X0089598Y0019241D01*
X0089557Y0019239D01*
X0087545Y0019226D02*
X0087545Y0019581D01*
X0087545Y0019226D02*
X0087543Y0019189D01*
X0087537Y0019152D01*
X0087528Y0019116D01*
X0087514Y0019081D01*
X0087497Y0019048D01*
X0087477Y0019017D01*
X0087454Y0018988D01*
X0087427Y0018961D01*
X0087398Y0018938D01*
X0087367Y0018918D01*
X0087334Y0018901D01*
X0087299Y0018887D01*
X0087263Y0018878D01*
X0087226Y0018872D01*
X0087189Y0018870D01*
X0086300Y0018870D01*
X0086263Y0018872D01*
X0086226Y0018878D01*
X0086190Y0018887D01*
X0086155Y0018901D01*
X0086122Y0018918D01*
X0086091Y0018938D01*
X0086062Y0018961D01*
X0086035Y0018988D01*
X0086012Y0019017D01*
X0085992Y0019048D01*
X0085975Y0019081D01*
X0085961Y0019116D01*
X0085952Y0019152D01*
X0085946Y0019189D01*
X0085944Y0019226D01*
X0085945Y0019226D02*
X0085945Y0019581D01*
X0068774Y0031217D02*
X0067752Y0031217D01*
X0067690Y0031219D01*
X0067629Y0031224D01*
X0067568Y0031234D01*
X0067507Y0031247D01*
X0067448Y0031263D01*
X0067390Y0031283D01*
X0067333Y0031307D01*
X0067277Y0031334D01*
X0067223Y0031364D01*
X0067171Y0031398D01*
X0067122Y0031434D01*
X0067074Y0031474D01*
X0067029Y0031516D01*
X0066987Y0031561D01*
X0066947Y0031609D01*
X0066911Y0031658D01*
X0066877Y0031710D01*
X0066847Y0031764D01*
X0066820Y0031820D01*
X0066796Y0031877D01*
X0066776Y0031935D01*
X0066760Y0031994D01*
X0066747Y0032055D01*
X0066737Y0032116D01*
X0066732Y0032177D01*
X0066730Y0032239D01*
X0066730Y0034795D01*
X0066732Y0034857D01*
X0066737Y0034918D01*
X0066747Y0034979D01*
X0066760Y0035040D01*
X0066776Y0035099D01*
X0066796Y0035157D01*
X0066820Y0035214D01*
X0066847Y0035270D01*
X0066877Y0035324D01*
X0066911Y0035376D01*
X0066947Y0035425D01*
X0066987Y0035473D01*
X0067029Y0035518D01*
X0067074Y0035560D01*
X0067122Y0035599D01*
X0067171Y0035636D01*
X0067223Y0035670D01*
X0067277Y0035700D01*
X0067333Y0035727D01*
X0067390Y0035751D01*
X0067448Y0035771D01*
X0067507Y0035787D01*
X0067568Y0035800D01*
X0067629Y0035810D01*
X0067690Y0035815D01*
X0067752Y0035817D01*
X0068774Y0035817D01*
X0059848Y0034539D02*
X0059848Y0032495D01*
X0059849Y0032495D02*
X0059847Y0032426D01*
X0059842Y0032357D01*
X0059832Y0032288D01*
X0059819Y0032220D01*
X0059802Y0032153D01*
X0059782Y0032087D01*
X0059758Y0032022D01*
X0059731Y0031958D01*
X0059700Y0031896D01*
X0059666Y0031836D01*
X0059629Y0031778D01*
X0059588Y0031722D01*
X0059545Y0031668D01*
X0059499Y0031616D01*
X0059450Y0031567D01*
X0059398Y0031521D01*
X0059344Y0031478D01*
X0059288Y0031437D01*
X0059230Y0031400D01*
X0059170Y0031366D01*
X0059108Y0031335D01*
X0059044Y0031308D01*
X0058979Y0031284D01*
X0058913Y0031264D01*
X0058846Y0031247D01*
X0058778Y0031234D01*
X0058709Y0031224D01*
X0058640Y0031219D01*
X0058571Y0031217D01*
X0057293Y0031217D01*
X0057293Y0035817D01*
X0058571Y0035817D01*
X0058640Y0035815D01*
X0058709Y0035810D01*
X0058778Y0035800D01*
X0058846Y0035787D01*
X0058913Y0035770D01*
X0058979Y0035750D01*
X0059044Y0035726D01*
X0059108Y0035699D01*
X0059170Y0035668D01*
X0059230Y0035634D01*
X0059288Y0035597D01*
X0059344Y0035556D01*
X0059398Y0035513D01*
X0059450Y0035467D01*
X0059499Y0035418D01*
X0059545Y0035366D01*
X0059588Y0035312D01*
X0059629Y0035256D01*
X0059666Y0035198D01*
X0059700Y0035138D01*
X0059731Y0035076D01*
X0059758Y0035012D01*
X0059782Y0034947D01*
X0059802Y0034881D01*
X0059819Y0034814D01*
X0059832Y0034746D01*
X0059842Y0034677D01*
X0059847Y0034608D01*
X0059849Y0034539D01*
X0050248Y0033773D02*
X0047693Y0033773D01*
X0047693Y0035817D02*
X0047693Y0031217D01*
X0050248Y0031217D02*
X0050248Y0035817D01*
X0036937Y0033006D02*
X0033871Y0033006D01*
X0030821Y0033262D02*
X0029543Y0033262D01*
X0030821Y0033261D02*
X0030891Y0033263D01*
X0030962Y0033269D01*
X0031031Y0033278D01*
X0031100Y0033292D01*
X0031169Y0033309D01*
X0031236Y0033330D01*
X0031302Y0033355D01*
X0031366Y0033383D01*
X0031429Y0033415D01*
X0031490Y0033450D01*
X0031549Y0033489D01*
X0031606Y0033530D01*
X0031660Y0033575D01*
X0031712Y0033623D01*
X0031761Y0033673D01*
X0031808Y0033727D01*
X0031851Y0033782D01*
X0031891Y0033840D01*
X0031928Y0033900D01*
X0031961Y0033962D01*
X0031991Y0034026D01*
X0032018Y0034091D01*
X0032041Y0034157D01*
X0032060Y0034225D01*
X0032075Y0034294D01*
X0032087Y0034363D01*
X0032095Y0034433D01*
X0032099Y0034504D01*
X0032099Y0034574D01*
X0032095Y0034645D01*
X0032087Y0034715D01*
X0032075Y0034784D01*
X0032060Y0034853D01*
X0032041Y0034921D01*
X0032018Y0034987D01*
X0031991Y0035052D01*
X0031961Y0035116D01*
X0031928Y0035178D01*
X0031891Y0035238D01*
X0031851Y0035296D01*
X0031808Y0035351D01*
X0031761Y0035405D01*
X0031712Y0035455D01*
X0031660Y0035503D01*
X0031606Y0035548D01*
X0031549Y0035589D01*
X0031490Y0035628D01*
X0031429Y0035663D01*
X0031366Y0035695D01*
X0031302Y0035723D01*
X0031236Y0035748D01*
X0031169Y0035769D01*
X0031100Y0035786D01*
X0031031Y0035800D01*
X0030962Y0035809D01*
X0030891Y0035815D01*
X0030821Y0035817D01*
X0029543Y0035817D01*
X0029543Y0031217D01*
X0035404Y0031473D02*
X0035404Y0034539D01*
X0089543Y0033762D02*
X0090821Y0033762D01*
X0093871Y0033506D02*
X0096937Y0033506D01*
X0090821Y0033761D02*
X0090891Y0033763D01*
X0090962Y0033769D01*
X0091031Y0033778D01*
X0091100Y0033792D01*
X0091169Y0033809D01*
X0091236Y0033830D01*
X0091302Y0033855D01*
X0091366Y0033883D01*
X0091429Y0033915D01*
X0091490Y0033950D01*
X0091549Y0033989D01*
X0091606Y0034030D01*
X0091660Y0034075D01*
X0091712Y0034123D01*
X0091761Y0034173D01*
X0091808Y0034227D01*
X0091851Y0034282D01*
X0091891Y0034340D01*
X0091928Y0034400D01*
X0091961Y0034462D01*
X0091991Y0034526D01*
X0092018Y0034591D01*
X0092041Y0034657D01*
X0092060Y0034725D01*
X0092075Y0034794D01*
X0092087Y0034863D01*
X0092095Y0034933D01*
X0092099Y0035004D01*
X0092099Y0035074D01*
X0092095Y0035145D01*
X0092087Y0035215D01*
X0092075Y0035284D01*
X0092060Y0035353D01*
X0092041Y0035421D01*
X0092018Y0035487D01*
X0091991Y0035552D01*
X0091961Y0035616D01*
X0091928Y0035678D01*
X0091891Y0035738D01*
X0091851Y0035796D01*
X0091808Y0035851D01*
X0091761Y0035905D01*
X0091712Y0035955D01*
X0091660Y0036003D01*
X0091606Y0036048D01*
X0091549Y0036089D01*
X0091490Y0036128D01*
X0091429Y0036163D01*
X0091366Y0036195D01*
X0091302Y0036223D01*
X0091236Y0036248D01*
X0091169Y0036269D01*
X0091100Y0036286D01*
X0091031Y0036300D01*
X0090962Y0036309D01*
X0090891Y0036315D01*
X0090821Y0036317D01*
X0089543Y0036317D01*
X0089543Y0031717D01*
D14*
X0074016Y0020487D02*
X0066216Y0020487D01*
X0066216Y0009487D01*
X0074016Y0009487D01*
X0074016Y0020487D01*
D15*
X0074416Y0020887D02*
X0073516Y0020887D01*
X0074416Y0020887D02*
X0074416Y0019887D01*
X0066816Y0020887D02*
X0065816Y0020887D01*
X0065816Y0019887D01*
X0074416Y0011087D02*
X0074416Y0009087D01*
X0072616Y0009087D01*
X0066716Y0009087D02*
X0065816Y0009087D01*
X0065816Y0010087D01*
M02*
