G75*
%MOIN*%
%OFA0B0*%
%FSLAX25Y25*%
%IPPOS*%
%LPD*%
%AMOC8*
5,1,8,0,0,1.08239X$1,22.5*
%
%ADD10C,0.00500*%
%ADD11R,0.03346X0.03543*%
%ADD12R,0.03543X0.03346*%
%ADD13R,0.12598X0.07087*%
%ADD14R,0.02480X0.03268*%
%ADD15R,0.03268X0.02480*%
%ADD16C,0.02578*%
%ADD17C,0.00300*%
%ADD18C,0.00600*%
%ADD19C,0.01200*%
%ADD20C,0.00800*%
D10*
X0001275Y0001250D02*
X0001250Y0040662D01*
X0129113Y0040662D01*
X0129138Y0001250D01*
X0001275Y0001250D01*
D11*
X0028529Y0005268D03*
X0033096Y0005268D03*
X0050729Y0006212D03*
X0055296Y0006212D03*
X0065502Y0006106D03*
X0070069Y0006106D03*
X0033096Y0018783D03*
X0028529Y0018783D03*
X0029429Y0025798D03*
X0033996Y0025798D03*
D12*
X0060173Y0023871D03*
X0060173Y0019304D03*
D13*
X0115516Y0009265D03*
X0115516Y0031312D03*
D14*
X0034450Y0030477D03*
X0025395Y0030477D03*
X0026095Y0011377D03*
X0035150Y0011377D03*
D15*
X0041822Y0007049D03*
X0041822Y0016105D03*
D16*
X0026095Y0011377D03*
X0021122Y0009777D03*
X0017122Y0009777D03*
X0012122Y0009777D03*
X0007122Y0009777D03*
X0007122Y0013777D03*
X0012122Y0013777D03*
X0017122Y0013777D03*
X0021122Y0013777D03*
X0041822Y0007049D03*
X0058858Y0009513D03*
X0064122Y0012777D03*
X0058638Y0015542D03*
X0075405Y0015090D03*
X0077957Y0020419D03*
X0090122Y0020777D03*
X0096122Y0015777D03*
X0096122Y0010777D03*
X0111122Y0010777D03*
X0114122Y0010777D03*
X0117122Y0010777D03*
X0120122Y0010777D03*
X0120122Y0007777D03*
X0117122Y0007777D03*
X0114122Y0007777D03*
X0111122Y0007777D03*
X0070069Y0006106D03*
X0021122Y0005777D03*
X0017122Y0005777D03*
X0012122Y0005777D03*
X0007122Y0005777D03*
X0038122Y0022777D03*
X0047122Y0023488D03*
X0070122Y0026777D03*
X0063607Y0033517D03*
X0053607Y0033517D03*
X0021122Y0034777D03*
X0017122Y0034777D03*
X0012122Y0034777D03*
X0007122Y0034777D03*
X0007122Y0030777D03*
X0012122Y0030777D03*
X0017122Y0030777D03*
X0021122Y0030777D03*
X0021122Y0026777D03*
X0017122Y0026777D03*
X0012122Y0026777D03*
X0007122Y0026777D03*
X0111122Y0029777D03*
X0114122Y0029777D03*
X0117122Y0029777D03*
X0120122Y0029777D03*
X0120122Y0032777D03*
X0117122Y0032777D03*
X0114122Y0032777D03*
X0111122Y0032777D03*
D17*
X0022733Y0032761D02*
X0004122Y0032761D01*
X0004122Y0033059D02*
X0022733Y0033059D01*
X0022733Y0033358D02*
X0004122Y0033358D01*
X0004122Y0033656D02*
X0022733Y0033656D01*
X0022733Y0033955D02*
X0004122Y0033955D01*
X0004122Y0034253D02*
X0022733Y0034253D01*
X0022733Y0034552D02*
X0004122Y0034552D01*
X0004122Y0034850D02*
X0022733Y0034850D01*
X0022733Y0035149D02*
X0004122Y0035149D01*
X0004122Y0035447D02*
X0022733Y0035447D01*
X0022733Y0035746D02*
X0004122Y0035746D01*
X0004122Y0036044D02*
X0022733Y0036044D01*
X0022733Y0036343D02*
X0004122Y0036343D01*
X0004122Y0036641D02*
X0022733Y0036641D01*
X0022733Y0036777D02*
X0004122Y0036777D01*
X0004122Y0003777D01*
X0022733Y0003777D01*
X0022733Y0036777D01*
X0022733Y0032462D02*
X0004122Y0032462D01*
X0004122Y0032164D02*
X0022733Y0032164D01*
X0022733Y0031865D02*
X0004122Y0031865D01*
X0004122Y0031567D02*
X0022733Y0031567D01*
X0022733Y0031268D02*
X0004122Y0031268D01*
X0004122Y0030970D02*
X0022733Y0030970D01*
X0022733Y0030671D02*
X0004122Y0030671D01*
X0004122Y0030373D02*
X0022733Y0030373D01*
X0022733Y0030074D02*
X0004122Y0030074D01*
X0004122Y0029776D02*
X0022733Y0029776D01*
X0022733Y0029477D02*
X0004122Y0029477D01*
X0004122Y0029179D02*
X0022733Y0029179D01*
X0022733Y0028880D02*
X0004122Y0028880D01*
X0004122Y0028582D02*
X0022733Y0028582D01*
X0022733Y0028283D02*
X0004122Y0028283D01*
X0004122Y0027985D02*
X0022733Y0027985D01*
X0022733Y0027686D02*
X0004122Y0027686D01*
X0004122Y0027388D02*
X0022733Y0027388D01*
X0022733Y0027089D02*
X0004122Y0027089D01*
X0004122Y0026791D02*
X0022733Y0026791D01*
X0022733Y0026492D02*
X0004122Y0026492D01*
X0004122Y0026194D02*
X0022733Y0026194D01*
X0022733Y0025895D02*
X0004122Y0025895D01*
X0004122Y0025597D02*
X0022733Y0025597D01*
X0022733Y0025298D02*
X0004122Y0025298D01*
X0004122Y0025000D02*
X0022733Y0025000D01*
X0022733Y0024701D02*
X0004122Y0024701D01*
X0004122Y0024402D02*
X0022733Y0024402D01*
X0022733Y0024104D02*
X0004122Y0024104D01*
X0004122Y0023805D02*
X0022733Y0023805D01*
X0022733Y0023507D02*
X0004122Y0023507D01*
X0004122Y0023208D02*
X0022733Y0023208D01*
X0022733Y0022910D02*
X0004122Y0022910D01*
X0004122Y0022611D02*
X0022733Y0022611D01*
X0022733Y0022313D02*
X0004122Y0022313D01*
X0004122Y0022014D02*
X0022733Y0022014D01*
X0022733Y0021716D02*
X0004122Y0021716D01*
X0004122Y0021417D02*
X0022733Y0021417D01*
X0022733Y0021119D02*
X0004122Y0021119D01*
X0004122Y0020820D02*
X0022733Y0020820D01*
X0022733Y0020522D02*
X0004122Y0020522D01*
X0004122Y0020223D02*
X0022733Y0020223D01*
X0022733Y0019925D02*
X0004122Y0019925D01*
X0004122Y0019626D02*
X0022733Y0019626D01*
X0022733Y0019328D02*
X0004122Y0019328D01*
X0004122Y0019029D02*
X0022733Y0019029D01*
X0022733Y0018731D02*
X0004122Y0018731D01*
X0004122Y0018432D02*
X0022733Y0018432D01*
X0022733Y0018134D02*
X0004122Y0018134D01*
X0004122Y0017835D02*
X0022733Y0017835D01*
X0022733Y0017537D02*
X0004122Y0017537D01*
X0004122Y0017238D02*
X0022733Y0017238D01*
X0022733Y0016940D02*
X0004122Y0016940D01*
X0004122Y0016641D02*
X0022733Y0016641D01*
X0022733Y0016343D02*
X0004122Y0016343D01*
X0004122Y0016044D02*
X0022733Y0016044D01*
X0022733Y0015746D02*
X0004122Y0015746D01*
X0004122Y0015447D02*
X0022733Y0015447D01*
X0022733Y0015149D02*
X0004122Y0015149D01*
X0004122Y0014850D02*
X0022733Y0014850D01*
X0022733Y0014552D02*
X0004122Y0014552D01*
X0004122Y0014253D02*
X0022733Y0014253D01*
X0022733Y0013955D02*
X0004122Y0013955D01*
X0004122Y0013656D02*
X0022733Y0013656D01*
X0022733Y0013358D02*
X0004122Y0013358D01*
X0004122Y0013059D02*
X0022733Y0013059D01*
X0022733Y0012761D02*
X0004122Y0012761D01*
X0004122Y0012462D02*
X0022733Y0012462D01*
X0022733Y0012164D02*
X0004122Y0012164D01*
X0004122Y0011865D02*
X0022733Y0011865D01*
X0022733Y0011566D02*
X0004122Y0011566D01*
X0004122Y0011268D02*
X0022733Y0011268D01*
X0022733Y0010969D02*
X0004122Y0010969D01*
X0004122Y0010671D02*
X0022733Y0010671D01*
X0022733Y0010372D02*
X0004122Y0010372D01*
X0004122Y0010074D02*
X0022733Y0010074D01*
X0022733Y0009775D02*
X0004122Y0009775D01*
X0004122Y0009477D02*
X0022733Y0009477D01*
X0022733Y0009178D02*
X0004122Y0009178D01*
X0004122Y0008880D02*
X0022733Y0008880D01*
X0022733Y0008581D02*
X0004122Y0008581D01*
X0004122Y0008283D02*
X0022733Y0008283D01*
X0022733Y0007984D02*
X0004122Y0007984D01*
X0004122Y0007686D02*
X0022733Y0007686D01*
X0022733Y0007387D02*
X0004122Y0007387D01*
X0004122Y0007089D02*
X0022733Y0007089D01*
X0022733Y0006790D02*
X0004122Y0006790D01*
X0004122Y0006492D02*
X0022733Y0006492D01*
X0022733Y0006193D02*
X0004122Y0006193D01*
X0004122Y0005895D02*
X0022733Y0005895D01*
X0022733Y0005596D02*
X0004122Y0005596D01*
X0004122Y0005298D02*
X0022733Y0005298D01*
X0022733Y0004999D02*
X0004122Y0004999D01*
X0004122Y0004701D02*
X0022733Y0004701D01*
X0022733Y0004402D02*
X0004122Y0004402D01*
X0004122Y0004104D02*
X0022733Y0004104D01*
X0022733Y0003805D02*
X0004122Y0003805D01*
D18*
X0024122Y0003817D02*
X0025755Y0003817D01*
X0025755Y0003800D02*
X0024122Y0003800D01*
X0024122Y0008665D01*
X0024353Y0008532D01*
X0024683Y0008443D01*
X0025795Y0008443D01*
X0025795Y0011077D01*
X0026395Y0011077D01*
X0026395Y0008443D01*
X0027229Y0008443D01*
X0027229Y0008139D01*
X0026400Y0008139D01*
X0025755Y0007495D01*
X0025755Y0003800D01*
X0025755Y0004416D02*
X0024122Y0004416D01*
X0024122Y0005014D02*
X0025755Y0005014D01*
X0025755Y0005613D02*
X0024122Y0005613D01*
X0024122Y0006211D02*
X0025755Y0006211D01*
X0025755Y0006810D02*
X0024122Y0006810D01*
X0024122Y0007408D02*
X0025755Y0007408D01*
X0026267Y0008007D02*
X0024122Y0008007D01*
X0024122Y0008605D02*
X0024226Y0008605D01*
X0025795Y0008605D02*
X0026395Y0008605D01*
X0026395Y0009204D02*
X0025795Y0009204D01*
X0025795Y0009802D02*
X0026395Y0009802D01*
X0026395Y0010401D02*
X0025795Y0010401D01*
X0025795Y0010999D02*
X0026395Y0010999D01*
X0025795Y0011077D02*
X0025795Y0011677D01*
X0025795Y0014311D01*
X0024683Y0014311D01*
X0024353Y0014222D01*
X0024122Y0014089D01*
X0024122Y0027543D01*
X0025095Y0027543D01*
X0025095Y0030177D01*
X0025695Y0030177D01*
X0025695Y0027543D01*
X0026655Y0027543D01*
X0026655Y0023570D01*
X0027300Y0022926D01*
X0027929Y0022926D01*
X0027929Y0021654D01*
X0026400Y0021654D01*
X0025755Y0021010D01*
X0025755Y0016555D01*
X0026400Y0015911D01*
X0027229Y0015911D01*
X0027229Y0014311D01*
X0026395Y0014311D01*
X0026395Y0011677D01*
X0025795Y0011677D01*
X0024122Y0011677D01*
X0024122Y0011077D01*
X0025795Y0011077D01*
X0025795Y0011598D02*
X0024122Y0011598D01*
X0025795Y0012196D02*
X0026395Y0012196D01*
X0026395Y0012795D02*
X0025795Y0012795D01*
X0025795Y0013393D02*
X0026395Y0013393D01*
X0026395Y0013992D02*
X0025795Y0013992D01*
X0027229Y0014590D02*
X0024122Y0014590D01*
X0024122Y0015189D02*
X0027229Y0015189D01*
X0027229Y0015787D02*
X0024122Y0015787D01*
X0024122Y0016386D02*
X0025925Y0016386D01*
X0025755Y0016984D02*
X0024122Y0016984D01*
X0024122Y0017583D02*
X0025755Y0017583D01*
X0025755Y0018181D02*
X0024122Y0018181D01*
X0024122Y0018780D02*
X0025755Y0018780D01*
X0025755Y0019378D02*
X0024122Y0019378D01*
X0024122Y0019977D02*
X0025755Y0019977D01*
X0025755Y0020575D02*
X0024122Y0020575D01*
X0024122Y0021174D02*
X0025920Y0021174D01*
X0024122Y0021772D02*
X0027929Y0021772D01*
X0027929Y0022371D02*
X0024122Y0022371D01*
X0024122Y0022969D02*
X0027256Y0022969D01*
X0026658Y0023568D02*
X0024122Y0023568D01*
X0024122Y0024166D02*
X0026655Y0024166D01*
X0026655Y0024765D02*
X0024122Y0024765D01*
X0024122Y0025364D02*
X0026655Y0025364D01*
X0026655Y0025962D02*
X0024122Y0025962D01*
X0024122Y0026561D02*
X0026655Y0026561D01*
X0026655Y0027159D02*
X0024122Y0027159D01*
X0025095Y0027758D02*
X0025695Y0027758D01*
X0025695Y0028356D02*
X0025095Y0028356D01*
X0025095Y0028955D02*
X0025695Y0028955D01*
X0025695Y0029553D02*
X0025095Y0029553D01*
X0025095Y0030152D02*
X0025695Y0030152D01*
X0025695Y0030777D02*
X0025095Y0030777D01*
X0025095Y0033411D01*
X0024122Y0033411D01*
X0024122Y0037777D01*
X0032307Y0037777D01*
X0027929Y0033398D01*
X0027929Y0032305D01*
X0027846Y0032613D01*
X0027675Y0032909D01*
X0027433Y0033151D01*
X0027137Y0033322D01*
X0026806Y0033411D01*
X0025695Y0033411D01*
X0025695Y0030777D01*
X0025695Y0031349D02*
X0025095Y0031349D01*
X0025095Y0031947D02*
X0025695Y0031947D01*
X0025695Y0032546D02*
X0025095Y0032546D01*
X0025095Y0033144D02*
X0025695Y0033144D01*
X0024122Y0033743D02*
X0028273Y0033743D01*
X0027929Y0033144D02*
X0027440Y0033144D01*
X0027864Y0032546D02*
X0027929Y0032546D01*
X0030929Y0032156D02*
X0035050Y0036277D01*
X0075501Y0036277D01*
X0076457Y0035321D01*
X0076457Y0022014D01*
X0075768Y0021325D01*
X0075768Y0019512D01*
X0076503Y0018777D01*
X0070122Y0018777D01*
X0065670Y0014325D01*
X0065422Y0014573D01*
X0065422Y0015893D01*
X0064661Y0016654D01*
X0063044Y0018271D01*
X0063044Y0021433D01*
X0062890Y0021587D01*
X0063044Y0021742D01*
X0063044Y0026000D01*
X0062400Y0026644D01*
X0061473Y0026644D01*
X0061473Y0029545D01*
X0063256Y0031328D01*
X0064513Y0031328D01*
X0065796Y0032611D01*
X0065796Y0034424D01*
X0064513Y0035706D01*
X0062700Y0035706D01*
X0061418Y0034424D01*
X0061418Y0033167D01*
X0059634Y0031383D01*
X0058873Y0030622D01*
X0058873Y0026644D01*
X0057945Y0026644D01*
X0057301Y0026000D01*
X0057301Y0021742D01*
X0057456Y0021587D01*
X0057301Y0021433D01*
X0057301Y0017175D01*
X0057945Y0016531D01*
X0061107Y0016531D01*
X0062822Y0014816D01*
X0062822Y0014573D01*
X0061933Y0013684D01*
X0061933Y0012854D01*
X0061686Y0013102D01*
X0060345Y0013102D01*
X0058894Y0014553D01*
X0057649Y0014553D01*
X0057649Y0015797D01*
X0054907Y0018540D01*
X0054907Y0026316D01*
X0054807Y0026416D01*
X0054807Y0031622D01*
X0055796Y0032611D01*
X0055796Y0034424D01*
X0054513Y0035706D01*
X0052700Y0035706D01*
X0051418Y0034424D01*
X0051418Y0032611D01*
X0052407Y0031622D01*
X0052407Y0027098D01*
X0036769Y0027098D01*
X0036769Y0028025D01*
X0036598Y0028196D01*
X0036790Y0028388D01*
X0036790Y0032567D01*
X0036146Y0033211D01*
X0032754Y0033211D01*
X0032110Y0032567D01*
X0032110Y0028669D01*
X0031867Y0028669D01*
X0031712Y0028515D01*
X0031558Y0028669D01*
X0030929Y0028669D01*
X0030929Y0032156D01*
X0030929Y0031947D02*
X0032110Y0031947D01*
X0032110Y0032546D02*
X0031319Y0032546D01*
X0031917Y0033144D02*
X0032687Y0033144D01*
X0032516Y0033743D02*
X0051418Y0033743D01*
X0051418Y0034341D02*
X0033114Y0034341D01*
X0033713Y0034940D02*
X0051933Y0034940D01*
X0052532Y0035538D02*
X0034311Y0035538D01*
X0034910Y0036137D02*
X0075641Y0036137D01*
X0076240Y0035538D02*
X0064681Y0035538D01*
X0065280Y0034940D02*
X0076457Y0034940D01*
X0076457Y0034341D02*
X0065796Y0034341D01*
X0065796Y0033743D02*
X0076457Y0033743D01*
X0076457Y0033144D02*
X0065796Y0033144D01*
X0065731Y0032546D02*
X0076457Y0032546D01*
X0076457Y0031947D02*
X0065132Y0031947D01*
X0064534Y0031349D02*
X0076457Y0031349D01*
X0076457Y0030750D02*
X0062678Y0030750D01*
X0062079Y0030152D02*
X0076457Y0030152D01*
X0076457Y0029553D02*
X0061481Y0029553D01*
X0061473Y0028955D02*
X0076457Y0028955D01*
X0076457Y0028356D02*
X0061473Y0028356D01*
X0061473Y0027758D02*
X0076457Y0027758D01*
X0076457Y0027159D02*
X0061473Y0027159D01*
X0062483Y0026561D02*
X0076457Y0026561D01*
X0076457Y0025962D02*
X0063044Y0025962D01*
X0063044Y0025364D02*
X0076457Y0025364D01*
X0076457Y0024765D02*
X0063044Y0024765D01*
X0063044Y0024166D02*
X0076457Y0024166D01*
X0076457Y0023568D02*
X0063044Y0023568D01*
X0063044Y0022969D02*
X0076457Y0022969D01*
X0076457Y0022371D02*
X0063044Y0022371D01*
X0063044Y0021772D02*
X0076215Y0021772D01*
X0075768Y0021174D02*
X0063044Y0021174D01*
X0063044Y0020575D02*
X0075768Y0020575D01*
X0075768Y0019977D02*
X0063044Y0019977D01*
X0063044Y0019378D02*
X0075902Y0019378D01*
X0076500Y0018780D02*
X0063044Y0018780D01*
X0063134Y0018181D02*
X0069527Y0018181D01*
X0068928Y0017583D02*
X0063732Y0017583D01*
X0064331Y0016984D02*
X0068330Y0016984D01*
X0067731Y0016386D02*
X0064929Y0016386D01*
X0065422Y0015787D02*
X0067133Y0015787D01*
X0066534Y0015189D02*
X0065422Y0015189D01*
X0065422Y0014590D02*
X0065936Y0014590D01*
X0068337Y0013992D02*
X0093122Y0013992D01*
X0093122Y0014590D02*
X0068936Y0014590D01*
X0069534Y0015189D02*
X0093122Y0015189D01*
X0093122Y0015787D02*
X0070133Y0015787D01*
X0070731Y0016386D02*
X0093122Y0016386D01*
X0093122Y0016777D02*
X0093122Y0008777D01*
X0101122Y0008777D01*
X0105122Y0012777D01*
X0107917Y0012777D01*
X0107917Y0009565D01*
X0115216Y0009565D01*
X0115216Y0008965D01*
X0115816Y0008965D01*
X0115816Y0004422D01*
X0121986Y0004422D01*
X0122317Y0004511D01*
X0122613Y0004682D01*
X0122856Y0004924D01*
X0123027Y0005220D01*
X0123115Y0005551D01*
X0123115Y0008965D01*
X0115816Y0008965D01*
X0115816Y0009565D01*
X0123115Y0009565D01*
X0123115Y0012777D01*
X0123122Y0012777D01*
X0123122Y0035777D01*
X0126566Y0035777D01*
X0126586Y0003800D01*
X0072763Y0003800D01*
X0072842Y0003879D01*
X0072842Y0008334D01*
X0072197Y0008978D01*
X0067940Y0008978D01*
X0067785Y0008824D01*
X0067631Y0008978D01*
X0064468Y0008978D01*
X0063896Y0009551D01*
X0064933Y0010588D01*
X0065029Y0010588D01*
X0066311Y0011870D01*
X0066311Y0011966D01*
X0071122Y0016777D01*
X0093122Y0016777D01*
X0090122Y0015777D02*
X0090122Y0020777D01*
X0080146Y0020575D02*
X0102122Y0020575D01*
X0102122Y0021174D02*
X0080146Y0021174D01*
X0080146Y0021325D02*
X0079457Y0022014D01*
X0079457Y0036564D01*
X0078578Y0037442D01*
X0078244Y0037777D01*
X0126565Y0037777D01*
X0126566Y0035777D01*
X0122450Y0035777D01*
X0122271Y0035956D01*
X0108761Y0035956D01*
X0108117Y0035311D01*
X0108117Y0034772D01*
X0102122Y0028777D01*
X0102122Y0019777D01*
X0101122Y0018777D01*
X0079411Y0018777D01*
X0080146Y0019512D01*
X0080146Y0021325D01*
X0079699Y0021772D02*
X0102122Y0021772D01*
X0102122Y0022371D02*
X0079457Y0022371D01*
X0079457Y0022969D02*
X0102122Y0022969D01*
X0102122Y0023568D02*
X0079457Y0023568D01*
X0079457Y0024166D02*
X0102122Y0024166D01*
X0102122Y0024765D02*
X0079457Y0024765D01*
X0079457Y0025364D02*
X0102122Y0025364D01*
X0102122Y0025962D02*
X0079457Y0025962D01*
X0079457Y0026561D02*
X0102122Y0026561D01*
X0102122Y0027159D02*
X0079457Y0027159D01*
X0079457Y0027758D02*
X0102122Y0027758D01*
X0102122Y0028356D02*
X0079457Y0028356D01*
X0079457Y0028955D02*
X0102300Y0028955D01*
X0102898Y0029553D02*
X0079457Y0029553D01*
X0079457Y0030152D02*
X0103497Y0030152D01*
X0104095Y0030750D02*
X0079457Y0030750D01*
X0079457Y0031349D02*
X0104694Y0031349D01*
X0105292Y0031947D02*
X0079457Y0031947D01*
X0079457Y0032546D02*
X0105891Y0032546D01*
X0106489Y0033144D02*
X0079457Y0033144D01*
X0079457Y0033743D02*
X0107088Y0033743D01*
X0107686Y0034341D02*
X0079457Y0034341D01*
X0079457Y0034940D02*
X0108117Y0034940D01*
X0108344Y0035538D02*
X0079457Y0035538D01*
X0079457Y0036137D02*
X0126566Y0036137D01*
X0126566Y0036735D02*
X0079285Y0036735D01*
X0078687Y0037334D02*
X0126565Y0037334D01*
X0126566Y0035538D02*
X0123122Y0035538D01*
X0123122Y0034940D02*
X0126567Y0034940D01*
X0126567Y0034341D02*
X0123122Y0034341D01*
X0123122Y0033743D02*
X0126567Y0033743D01*
X0126568Y0033144D02*
X0123122Y0033144D01*
X0123122Y0032546D02*
X0126568Y0032546D01*
X0126569Y0031947D02*
X0123122Y0031947D01*
X0123122Y0031349D02*
X0126569Y0031349D01*
X0126569Y0030750D02*
X0123122Y0030750D01*
X0123122Y0030152D02*
X0126570Y0030152D01*
X0126570Y0029553D02*
X0123122Y0029553D01*
X0123122Y0028955D02*
X0126570Y0028955D01*
X0126571Y0028356D02*
X0123122Y0028356D01*
X0123122Y0027758D02*
X0126571Y0027758D01*
X0126572Y0027159D02*
X0123122Y0027159D01*
X0123122Y0026561D02*
X0126572Y0026561D01*
X0126572Y0025962D02*
X0123122Y0025962D01*
X0123122Y0025364D02*
X0126573Y0025364D01*
X0126573Y0024765D02*
X0123122Y0024765D01*
X0123122Y0024166D02*
X0126573Y0024166D01*
X0126574Y0023568D02*
X0123122Y0023568D01*
X0123122Y0022969D02*
X0126574Y0022969D01*
X0126575Y0022371D02*
X0123122Y0022371D01*
X0123122Y0021772D02*
X0126575Y0021772D01*
X0126575Y0021174D02*
X0123122Y0021174D01*
X0123122Y0020575D02*
X0126576Y0020575D01*
X0126576Y0019977D02*
X0123122Y0019977D01*
X0123122Y0019378D02*
X0126576Y0019378D01*
X0126577Y0018780D02*
X0123122Y0018780D01*
X0123122Y0018181D02*
X0126577Y0018181D01*
X0126578Y0017583D02*
X0123122Y0017583D01*
X0123122Y0016984D02*
X0126578Y0016984D01*
X0126578Y0016386D02*
X0123122Y0016386D01*
X0123122Y0015787D02*
X0126579Y0015787D01*
X0126579Y0015189D02*
X0123122Y0015189D01*
X0123122Y0014590D02*
X0126579Y0014590D01*
X0126580Y0013992D02*
X0123122Y0013992D01*
X0123122Y0013393D02*
X0126580Y0013393D01*
X0126581Y0012795D02*
X0123122Y0012795D01*
X0123115Y0012196D02*
X0126581Y0012196D01*
X0126581Y0011598D02*
X0123115Y0011598D01*
X0123115Y0010999D02*
X0126582Y0010999D01*
X0126582Y0010401D02*
X0123115Y0010401D01*
X0123115Y0009802D02*
X0126582Y0009802D01*
X0126583Y0009204D02*
X0115816Y0009204D01*
X0115816Y0009565D02*
X0115216Y0009565D01*
X0115216Y0012777D01*
X0115816Y0012777D01*
X0115816Y0009565D01*
X0115816Y0009802D02*
X0115216Y0009802D01*
X0115216Y0010401D02*
X0115816Y0010401D01*
X0115816Y0010999D02*
X0115216Y0010999D01*
X0115216Y0011598D02*
X0115816Y0011598D01*
X0115816Y0012196D02*
X0115216Y0012196D01*
X0107917Y0012196D02*
X0104542Y0012196D01*
X0103943Y0011598D02*
X0107917Y0011598D01*
X0107917Y0010999D02*
X0103345Y0010999D01*
X0102746Y0010401D02*
X0107917Y0010401D01*
X0107917Y0009802D02*
X0102148Y0009802D01*
X0101549Y0009204D02*
X0115216Y0009204D01*
X0115216Y0008965D02*
X0107917Y0008965D01*
X0107917Y0005551D01*
X0108005Y0005220D01*
X0108177Y0004924D01*
X0108419Y0004682D01*
X0108715Y0004511D01*
X0109046Y0004422D01*
X0115216Y0004422D01*
X0115216Y0008965D01*
X0115122Y0008777D02*
X0114122Y0007777D01*
X0115216Y0008007D02*
X0115816Y0008007D01*
X0115816Y0008605D02*
X0115216Y0008605D01*
X0115122Y0008777D02*
X0115122Y0018777D01*
X0107122Y0018777D01*
X0099122Y0010777D01*
X0096122Y0010777D01*
X0093122Y0010999D02*
X0065440Y0010999D01*
X0066039Y0011598D02*
X0093122Y0011598D01*
X0093122Y0012196D02*
X0066542Y0012196D01*
X0067140Y0012795D02*
X0093122Y0012795D01*
X0093122Y0013393D02*
X0067739Y0013393D01*
X0062822Y0014590D02*
X0057649Y0014590D01*
X0059455Y0013992D02*
X0062241Y0013992D01*
X0061933Y0013393D02*
X0060053Y0013393D01*
X0062449Y0015189D02*
X0057649Y0015189D01*
X0057649Y0015787D02*
X0061851Y0015787D01*
X0061252Y0016386D02*
X0057061Y0016386D01*
X0057492Y0016984D02*
X0056462Y0016984D01*
X0055864Y0017583D02*
X0057301Y0017583D01*
X0057301Y0018181D02*
X0055265Y0018181D01*
X0054907Y0018780D02*
X0057301Y0018780D01*
X0057301Y0019378D02*
X0054907Y0019378D01*
X0054907Y0019977D02*
X0057301Y0019977D01*
X0057301Y0020575D02*
X0054907Y0020575D01*
X0054907Y0021174D02*
X0057301Y0021174D01*
X0057301Y0021772D02*
X0054907Y0021772D01*
X0054907Y0022371D02*
X0057301Y0022371D01*
X0057301Y0022969D02*
X0054907Y0022969D01*
X0054907Y0023568D02*
X0057301Y0023568D01*
X0057301Y0024166D02*
X0054907Y0024166D01*
X0054907Y0024765D02*
X0057301Y0024765D01*
X0057301Y0025364D02*
X0054907Y0025364D01*
X0054907Y0025962D02*
X0057301Y0025962D01*
X0057862Y0026561D02*
X0054807Y0026561D01*
X0054807Y0027159D02*
X0058873Y0027159D01*
X0058873Y0027758D02*
X0054807Y0027758D01*
X0054807Y0028356D02*
X0058873Y0028356D01*
X0058873Y0028955D02*
X0054807Y0028955D01*
X0054807Y0029553D02*
X0058873Y0029553D01*
X0058873Y0030152D02*
X0054807Y0030152D01*
X0054807Y0030750D02*
X0059001Y0030750D01*
X0059600Y0031349D02*
X0054807Y0031349D01*
X0055132Y0031947D02*
X0060198Y0031947D01*
X0060797Y0032546D02*
X0055731Y0032546D01*
X0055796Y0033144D02*
X0061395Y0033144D01*
X0061418Y0033743D02*
X0055796Y0033743D01*
X0055796Y0034341D02*
X0061418Y0034341D01*
X0061933Y0034940D02*
X0055280Y0034940D01*
X0054681Y0035538D02*
X0062532Y0035538D01*
X0053607Y0033517D02*
X0053607Y0025777D01*
X0052407Y0027159D02*
X0036769Y0027159D01*
X0036769Y0027758D02*
X0052407Y0027758D01*
X0052407Y0028356D02*
X0036759Y0028356D01*
X0036790Y0028955D02*
X0052407Y0028955D01*
X0052407Y0029553D02*
X0036790Y0029553D01*
X0036790Y0030152D02*
X0052407Y0030152D01*
X0052407Y0030750D02*
X0036790Y0030750D01*
X0036790Y0031349D02*
X0052407Y0031349D01*
X0052081Y0031947D02*
X0036790Y0031947D01*
X0036790Y0032546D02*
X0051482Y0032546D01*
X0051418Y0033144D02*
X0036212Y0033144D01*
X0032110Y0031349D02*
X0030929Y0031349D01*
X0030929Y0030750D02*
X0032110Y0030750D01*
X0032110Y0030152D02*
X0030929Y0030152D01*
X0030929Y0029553D02*
X0032110Y0029553D01*
X0032110Y0028955D02*
X0030929Y0028955D01*
X0028871Y0034341D02*
X0024122Y0034341D01*
X0024122Y0034940D02*
X0029470Y0034940D01*
X0030068Y0035538D02*
X0024122Y0035538D01*
X0024122Y0036137D02*
X0030667Y0036137D01*
X0031266Y0036735D02*
X0024122Y0036735D01*
X0024122Y0037334D02*
X0031864Y0037334D01*
X0045822Y0020350D02*
X0045822Y0009280D01*
X0046584Y0008519D01*
X0047955Y0007147D01*
X0047955Y0003985D01*
X0048141Y0003800D01*
X0035869Y0003800D01*
X0035869Y0006202D01*
X0036910Y0007243D01*
X0037426Y0007243D01*
X0038982Y0008799D01*
X0038977Y0008791D01*
X0038888Y0008461D01*
X0038888Y0007349D01*
X0041522Y0007349D01*
X0041522Y0006750D01*
X0038888Y0006750D01*
X0038888Y0005638D01*
X0038977Y0005308D01*
X0039148Y0005011D01*
X0039390Y0004769D01*
X0039687Y0004598D01*
X0040017Y0004509D01*
X0041522Y0004509D01*
X0041522Y0006749D01*
X0042122Y0006749D01*
X0042122Y0004509D01*
X0043627Y0004509D01*
X0043958Y0004598D01*
X0044254Y0004769D01*
X0044496Y0005011D01*
X0044668Y0005308D01*
X0044756Y0005638D01*
X0044756Y0006750D01*
X0042122Y0006750D01*
X0042122Y0007349D01*
X0044756Y0007349D01*
X0044756Y0008461D01*
X0044668Y0008791D01*
X0044496Y0009088D01*
X0044254Y0009330D01*
X0043958Y0009501D01*
X0043627Y0009590D01*
X0042122Y0009590D01*
X0042122Y0007350D01*
X0041522Y0007350D01*
X0041522Y0009590D01*
X0040017Y0009590D01*
X0039687Y0009501D01*
X0039679Y0009497D01*
X0043122Y0012940D01*
X0043122Y0013764D01*
X0043912Y0013764D01*
X0044556Y0014409D01*
X0044556Y0017800D01*
X0043915Y0018442D01*
X0045822Y0020350D01*
X0045822Y0019977D02*
X0045450Y0019977D01*
X0045822Y0019378D02*
X0044851Y0019378D01*
X0044253Y0018780D02*
X0045822Y0018780D01*
X0045822Y0018181D02*
X0044175Y0018181D01*
X0044556Y0017583D02*
X0045822Y0017583D01*
X0045822Y0016984D02*
X0044556Y0016984D01*
X0044556Y0016386D02*
X0045822Y0016386D01*
X0045822Y0015787D02*
X0044556Y0015787D01*
X0044556Y0015189D02*
X0045822Y0015189D01*
X0045822Y0014590D02*
X0044556Y0014590D01*
X0044139Y0013992D02*
X0045822Y0013992D01*
X0045822Y0013393D02*
X0043122Y0013393D01*
X0042977Y0012795D02*
X0045822Y0012795D01*
X0045822Y0012196D02*
X0042379Y0012196D01*
X0041780Y0011598D02*
X0045822Y0011598D01*
X0045822Y0010999D02*
X0041182Y0010999D01*
X0040583Y0010401D02*
X0045822Y0010401D01*
X0045822Y0009802D02*
X0039985Y0009802D01*
X0041522Y0009204D02*
X0042122Y0009204D01*
X0042122Y0008605D02*
X0041522Y0008605D01*
X0041522Y0008007D02*
X0042122Y0008007D01*
X0042122Y0007408D02*
X0041522Y0007408D01*
X0041522Y0006810D02*
X0036476Y0006810D01*
X0037591Y0007408D02*
X0038888Y0007408D01*
X0038888Y0008007D02*
X0038189Y0008007D01*
X0038788Y0008605D02*
X0038927Y0008605D01*
X0042122Y0006810D02*
X0047955Y0006810D01*
X0047694Y0007408D02*
X0044756Y0007408D01*
X0044756Y0008007D02*
X0047096Y0008007D01*
X0046497Y0008605D02*
X0044718Y0008605D01*
X0044381Y0009204D02*
X0045899Y0009204D01*
X0044756Y0006211D02*
X0047955Y0006211D01*
X0047955Y0005613D02*
X0044749Y0005613D01*
X0044498Y0005014D02*
X0047955Y0005014D01*
X0047955Y0004416D02*
X0035869Y0004416D01*
X0035869Y0005014D02*
X0039146Y0005014D01*
X0041522Y0005014D02*
X0042122Y0005014D01*
X0042122Y0005613D02*
X0041522Y0005613D01*
X0041522Y0006211D02*
X0042122Y0006211D01*
X0038888Y0006211D02*
X0035878Y0006211D01*
X0035869Y0005613D02*
X0038895Y0005613D01*
X0035869Y0003817D02*
X0048123Y0003817D01*
X0064243Y0009204D02*
X0093122Y0009204D01*
X0093122Y0009802D02*
X0064148Y0009802D01*
X0064746Y0010401D02*
X0093122Y0010401D01*
X0107917Y0008605D02*
X0072570Y0008605D01*
X0072842Y0008007D02*
X0107917Y0008007D01*
X0107917Y0007408D02*
X0072842Y0007408D01*
X0072842Y0006810D02*
X0107917Y0006810D01*
X0107917Y0006211D02*
X0072842Y0006211D01*
X0072842Y0005613D02*
X0107917Y0005613D01*
X0108124Y0005014D02*
X0072842Y0005014D01*
X0072842Y0004416D02*
X0126586Y0004416D01*
X0126585Y0005014D02*
X0122908Y0005014D01*
X0123115Y0005613D02*
X0126585Y0005613D01*
X0126585Y0006211D02*
X0123115Y0006211D01*
X0123115Y0006810D02*
X0126584Y0006810D01*
X0126584Y0007408D02*
X0123115Y0007408D01*
X0123115Y0008007D02*
X0126584Y0008007D01*
X0126583Y0008605D02*
X0123115Y0008605D01*
X0115816Y0007408D02*
X0115216Y0007408D01*
X0115216Y0006810D02*
X0115816Y0006810D01*
X0115816Y0006211D02*
X0115216Y0006211D01*
X0115216Y0005613D02*
X0115816Y0005613D01*
X0115816Y0005014D02*
X0115216Y0005014D01*
X0126586Y0003817D02*
X0072780Y0003817D01*
X0075405Y0015090D02*
X0090122Y0015777D01*
X0096122Y0015777D02*
X0102425Y0015777D01*
X0106625Y0019977D01*
X0115122Y0019977D01*
X0115516Y0020371D01*
X0115516Y0031312D01*
X0115516Y0029777D01*
X0114122Y0029777D01*
X0115516Y0029777D02*
X0117122Y0029777D01*
X0115516Y0031312D02*
X0115516Y0032777D01*
X0114122Y0032777D01*
X0115516Y0032777D02*
X0117122Y0032777D01*
X0102122Y0019977D02*
X0080146Y0019977D01*
X0080012Y0019378D02*
X0101724Y0019378D01*
X0101125Y0018780D02*
X0079414Y0018780D01*
X0075669Y0015108D02*
X0075405Y0015090D01*
D19*
X0070122Y0015090D01*
X0070122Y0026777D01*
X0077957Y0020777D02*
X0077957Y0035942D01*
X0076122Y0037777D01*
X0034429Y0037777D01*
X0029429Y0032777D01*
X0029429Y0019683D01*
X0028529Y0018783D01*
X0028823Y0019077D02*
X0028823Y0005562D01*
X0028529Y0005268D01*
X0058638Y0015542D02*
X0059122Y0015542D01*
X0059122Y0015777D01*
X0075405Y0015090D02*
X0075405Y0006777D01*
X0104122Y0006777D01*
X0104122Y0009265D01*
X0115516Y0009265D01*
D20*
X0077957Y0020419D02*
X0077957Y0020777D01*
X0064122Y0015354D02*
X0064122Y0012777D01*
X0061147Y0011802D02*
X0059806Y0011802D01*
X0058355Y0013253D01*
X0056349Y0013253D01*
X0056349Y0015259D01*
X0053607Y0018002D01*
X0053607Y0025777D01*
X0053586Y0025798D01*
X0033996Y0025798D01*
X0033996Y0030023D01*
X0034450Y0030477D01*
X0029429Y0032777D02*
X0029429Y0025798D01*
X0029429Y0019683D01*
X0028823Y0019077D01*
X0028529Y0018783D01*
X0028529Y0013514D01*
X0028535Y0013508D01*
X0028535Y0009246D01*
X0028529Y0009240D01*
X0028529Y0005268D01*
X0033096Y0005268D02*
X0036371Y0008543D01*
X0036887Y0008543D01*
X0041822Y0013478D01*
X0041822Y0016105D01*
X0041822Y0018188D01*
X0047122Y0023488D01*
X0047122Y0009819D01*
X0050729Y0006212D01*
X0055296Y0006212D02*
X0055558Y0006212D01*
X0058858Y0009513D01*
X0061147Y0010461D02*
X0061147Y0011802D01*
X0061147Y0010461D02*
X0065502Y0006106D01*
X0064122Y0015354D02*
X0060173Y0019304D01*
X0060173Y0023871D02*
X0060173Y0030083D01*
X0063607Y0033517D01*
X0038122Y0022777D02*
X0037090Y0022777D01*
X0033096Y0018783D01*
X0035150Y0016728D01*
X0035150Y0011377D01*
M02*
