%
M48
M72
T01C0.01378
%
T01
X7122Y5777
X12122Y5777
X17122Y5777
X21122Y5777
X21122Y9777
X17122Y9777
X12122Y9777
X7122Y9777
X7122Y13777
X12122Y13777
X17122Y13777
X21122Y13777
X26095Y11377
X41822Y7049
X58858Y9513
X64122Y12777
X58638Y15542
X75405Y15090
X77957Y20419
X90122Y20777
X96122Y15777
X96122Y10777
X111122Y10777
X114122Y10777
X117122Y10777
X120122Y10777
X120122Y7777
X117122Y7777
X114122Y7777
X111122Y7777
X70069Y6106
X38122Y22777
X47122Y23488
X70122Y26777
X63607Y33517
X53607Y33517
X21122Y34777
X17122Y34777
X12122Y34777
X7122Y34777
X7122Y30777
X12122Y30777
X17122Y30777
X21122Y30777
X21122Y26777
X17122Y26777
X12122Y26777
X7122Y26777
X111122Y29777
X114122Y29777
X117122Y29777
X120122Y29777
X120122Y32777
X117122Y32777
X114122Y32777
X111122Y32777
M30
