G75*
%MOIN*%
%OFA0B0*%
%FSLAX25Y25*%
%IPPOS*%
%LPD*%
%AMOC8*
5,1,8,0,0,1.08239X$1,22.5*
%
%ADD10C,0.00500*%
%ADD11R,0.02559X0.11811*%
%ADD12C,0.01102*%
%ADD13R,0.03346X0.03543*%
%ADD14R,0.03543X0.03346*%
%ADD15C,0.01181*%
%ADD16C,0.01000*%
%ADD17C,0.10000*%
%ADD18C,0.04600*%
%ADD19C,0.02578*%
%ADD20C,0.00600*%
%ADD21C,0.03200*%
%ADD22C,0.00800*%
%ADD23C,0.02400*%
%ADD24C,0.01600*%
%ADD25C,0.01200*%
%ADD26C,0.02500*%
%ADD27C,0.05000*%
D10*
X0001275Y0001250D02*
X0001250Y0040662D01*
X0129113Y0040662D01*
X0129138Y0001250D01*
X0001275Y0001250D01*
D11*
X0043607Y0033517D03*
X0053607Y0033517D03*
X0063607Y0033517D03*
X0073607Y0033517D03*
X0083607Y0033517D03*
D12*
X0106190Y0024422D02*
X0124772Y0024422D01*
X0106190Y0024422D02*
X0106190Y0037100D01*
X0124772Y0037100D01*
X0124772Y0024422D01*
X0124772Y0025469D02*
X0106190Y0025469D01*
X0106190Y0026516D02*
X0124772Y0026516D01*
X0124772Y0027563D02*
X0106190Y0027563D01*
X0106190Y0028610D02*
X0124772Y0028610D01*
X0124772Y0029657D02*
X0106190Y0029657D01*
X0106190Y0030704D02*
X0124772Y0030704D01*
X0124772Y0031751D02*
X0106190Y0031751D01*
X0106190Y0032798D02*
X0124772Y0032798D01*
X0124772Y0033845D02*
X0106190Y0033845D01*
X0106190Y0034892D02*
X0124772Y0034892D01*
X0124772Y0035939D02*
X0106190Y0035939D01*
X0106190Y0036986D02*
X0124772Y0036986D01*
X0124669Y0004580D02*
X0106087Y0004580D01*
X0106087Y0017258D01*
X0124669Y0017258D01*
X0124669Y0004580D01*
X0124669Y0005627D02*
X0106087Y0005627D01*
X0106087Y0006674D02*
X0124669Y0006674D01*
X0124669Y0007721D02*
X0106087Y0007721D01*
X0106087Y0008768D02*
X0124669Y0008768D01*
X0124669Y0009815D02*
X0106087Y0009815D01*
X0106087Y0010862D02*
X0124669Y0010862D01*
X0124669Y0011909D02*
X0106087Y0011909D01*
X0106087Y0012956D02*
X0124669Y0012956D01*
X0124669Y0014003D02*
X0106087Y0014003D01*
X0106087Y0015050D02*
X0124669Y0015050D01*
X0124669Y0016097D02*
X0106087Y0016097D01*
X0106087Y0017144D02*
X0124669Y0017144D01*
X0022878Y0004233D02*
X0004296Y0004233D01*
X0004296Y0016911D01*
X0022878Y0016911D01*
X0022878Y0004233D01*
X0022878Y0005280D02*
X0004296Y0005280D01*
X0004296Y0006327D02*
X0022878Y0006327D01*
X0022878Y0007374D02*
X0004296Y0007374D01*
X0004296Y0008421D02*
X0022878Y0008421D01*
X0022878Y0009468D02*
X0004296Y0009468D01*
X0004296Y0010515D02*
X0022878Y0010515D01*
X0022878Y0011562D02*
X0004296Y0011562D01*
X0004296Y0012609D02*
X0022878Y0012609D01*
X0022878Y0013656D02*
X0004296Y0013656D01*
X0004296Y0014703D02*
X0022878Y0014703D01*
X0022878Y0015750D02*
X0004296Y0015750D01*
X0004296Y0016797D02*
X0022878Y0016797D01*
X0022793Y0024300D02*
X0004211Y0024300D01*
X0004211Y0036978D01*
X0022793Y0036978D01*
X0022793Y0024300D01*
X0022793Y0025347D02*
X0004211Y0025347D01*
X0004211Y0026394D02*
X0022793Y0026394D01*
X0022793Y0027441D02*
X0004211Y0027441D01*
X0004211Y0028488D02*
X0022793Y0028488D01*
X0022793Y0029535D02*
X0004211Y0029535D01*
X0004211Y0030582D02*
X0022793Y0030582D01*
X0022793Y0031629D02*
X0004211Y0031629D01*
X0004211Y0032676D02*
X0022793Y0032676D01*
X0022793Y0033723D02*
X0004211Y0033723D01*
X0004211Y0034770D02*
X0022793Y0034770D01*
X0022793Y0035817D02*
X0004211Y0035817D01*
X0004211Y0036864D02*
X0022793Y0036864D01*
D13*
X0058638Y0021635D03*
X0063205Y0021635D03*
X0063205Y0016399D03*
X0058638Y0016399D03*
X0088206Y0015456D03*
X0092773Y0015456D03*
X0092792Y0010736D03*
X0088225Y0010736D03*
D14*
X0083539Y0010325D03*
X0079266Y0010940D03*
X0079266Y0015507D03*
X0083385Y0015860D03*
X0083385Y0020427D03*
X0077957Y0020419D03*
X0077957Y0024986D03*
X0083539Y0005758D03*
D15*
X0072085Y0011050D03*
X0070116Y0011050D03*
X0068148Y0011050D03*
X0068148Y0013018D03*
X0070116Y0013018D03*
X0072085Y0013018D03*
X0072085Y0014987D03*
X0070116Y0014987D03*
X0068148Y0014987D03*
X0068148Y0016955D03*
X0070116Y0016955D03*
X0072085Y0016955D03*
X0072085Y0018924D03*
X0070116Y0018924D03*
X0068148Y0018924D03*
D16*
X0070038Y0019002D02*
X0070038Y0019707D01*
X0068458Y0021287D01*
X0067385Y0021287D01*
X0063205Y0017107D01*
X0063205Y0016399D01*
X0070116Y0016955D02*
X0070116Y0018924D01*
X0070038Y0019002D01*
X0072085Y0018924D02*
X0072085Y0022472D01*
X0071063Y0023494D01*
X0065064Y0023494D01*
X0063205Y0021635D01*
X0070116Y0014987D02*
X0072085Y0014987D01*
D17*
X0016122Y0031777D02*
X0013587Y0029242D01*
X0013587Y0010572D01*
X0012122Y0030777D02*
X0043607Y0033517D01*
X0083607Y0033517D02*
X0112725Y0033517D01*
D18*
X0021122Y0031777D02*
X0021122Y0030777D01*
X0021122Y0026777D01*
X0021122Y0014777D01*
X0021122Y0013777D01*
X0021122Y0014777D02*
X0009122Y0026777D01*
X0009122Y0011777D01*
X0007122Y0009777D01*
X0006122Y0008777D01*
X0006122Y0013777D01*
X0006122Y0022490D01*
X0011766Y0028134D01*
X0015122Y0031777D02*
X0016122Y0031777D01*
X0015122Y0031777D02*
X0006122Y0022777D01*
X0014122Y0014777D01*
X0019122Y0014777D01*
X0019122Y0031777D01*
X0020122Y0032777D01*
X0021122Y0031777D01*
D19*
X0021122Y0030777D03*
X0017122Y0030777D03*
X0012122Y0030777D03*
X0007122Y0030777D03*
X0007122Y0034777D03*
X0012122Y0034777D03*
X0017122Y0034777D03*
X0021122Y0034777D03*
X0021122Y0026777D03*
X0017122Y0026777D03*
X0012122Y0026777D03*
X0007122Y0026777D03*
X0038122Y0022777D03*
X0047122Y0023488D03*
X0070122Y0026777D03*
X0077957Y0020419D03*
X0090122Y0020777D03*
X0096122Y0015777D03*
X0096122Y0010777D03*
X0111122Y0010777D03*
X0114122Y0010777D03*
X0117122Y0010777D03*
X0120122Y0010777D03*
X0120122Y0007777D03*
X0117122Y0007777D03*
X0114122Y0007777D03*
X0111122Y0007777D03*
X0075405Y0015090D03*
X0064122Y0012777D03*
X0058638Y0015542D03*
X0058858Y0009513D03*
X0070069Y0006106D03*
X0041822Y0007049D03*
X0026095Y0011377D03*
X0021122Y0009777D03*
X0017122Y0009777D03*
X0012122Y0009777D03*
X0007122Y0009777D03*
X0007122Y0013777D03*
X0012122Y0013777D03*
X0017122Y0013777D03*
X0021122Y0013777D03*
X0021122Y0005777D03*
X0017122Y0005777D03*
X0012122Y0005777D03*
X0007122Y0005777D03*
X0053607Y0033517D03*
X0063607Y0033517D03*
X0111122Y0032777D03*
X0114122Y0032777D03*
X0117122Y0032777D03*
X0120122Y0032777D03*
X0120122Y0029777D03*
X0117122Y0029777D03*
X0114122Y0029777D03*
X0111122Y0029777D03*
D20*
X0115481Y0030761D02*
X0115481Y0031135D01*
X0117122Y0032777D01*
X0116737Y0030761D02*
X0115481Y0030761D01*
X0116737Y0030761D02*
X0117721Y0029777D01*
X0105505Y0022772D02*
X0104650Y0023627D01*
X0085232Y0023627D01*
X0083972Y0024886D01*
X0082347Y0026512D01*
X0081871Y0026512D01*
X0081227Y0027156D01*
X0081227Y0027632D01*
X0080399Y0028460D01*
X0080265Y0028515D01*
X0078605Y0030175D01*
X0078549Y0030310D01*
X0077972Y0030886D01*
X0077972Y0031702D01*
X0077707Y0032344D01*
X0077707Y0034691D01*
X0078605Y0036859D01*
X0079857Y0038112D01*
X0075986Y0038112D01*
X0075986Y0027951D01*
X0076014Y0027959D01*
X0077657Y0027959D01*
X0077657Y0025286D01*
X0078257Y0025286D01*
X0078257Y0027959D01*
X0079900Y0027959D01*
X0080230Y0027870D01*
X0080527Y0027699D01*
X0080769Y0027457D01*
X0080940Y0027161D01*
X0081029Y0026830D01*
X0081029Y0025286D01*
X0078257Y0025286D01*
X0078257Y0024686D01*
X0081029Y0024686D01*
X0081029Y0023264D01*
X0081112Y0023312D01*
X0081443Y0023401D01*
X0083085Y0023401D01*
X0083085Y0020727D01*
X0083685Y0020727D01*
X0083685Y0023401D01*
X0085328Y0023401D01*
X0085659Y0023312D01*
X0085955Y0023141D01*
X0086197Y0022899D01*
X0086368Y0022602D01*
X0086457Y0022272D01*
X0086457Y0020727D01*
X0083685Y0020727D01*
X0083685Y0020127D01*
X0086457Y0020127D01*
X0086457Y0018777D01*
X0105017Y0018777D01*
X0105372Y0018982D01*
X0105843Y0019109D01*
X0106454Y0019109D01*
X0110117Y0022772D01*
X0105505Y0022772D01*
X0105307Y0022969D02*
X0086127Y0022969D01*
X0086430Y0022371D02*
X0109716Y0022371D01*
X0111716Y0022371D02*
X0126575Y0022371D01*
X0126574Y0022777D02*
X0125461Y0022777D01*
X0125456Y0022772D01*
X0112117Y0022772D01*
X0108454Y0019109D01*
X0115078Y0019109D01*
X0115078Y0011219D01*
X0115078Y0010619D01*
X0104236Y0010619D01*
X0104236Y0004336D01*
X0104362Y0003866D01*
X0104400Y0003800D01*
X0086580Y0003800D01*
X0086610Y0003913D01*
X0086610Y0005458D01*
X0083839Y0005458D01*
X0083839Y0006058D01*
X0086610Y0006058D01*
X0086610Y0007602D01*
X0086563Y0007777D01*
X0090576Y0007777D01*
X0090617Y0007753D01*
X0090947Y0007665D01*
X0092492Y0007665D01*
X0092492Y0007777D01*
X0093092Y0007777D01*
X0093092Y0007665D01*
X0094636Y0007665D01*
X0094967Y0007753D01*
X0095008Y0007777D01*
X0097122Y0007777D01*
X0104236Y0014890D01*
X0104236Y0011219D01*
X0115078Y0011219D01*
X0115678Y0011219D01*
X0115678Y0019109D01*
X0124913Y0019109D01*
X0125384Y0018982D01*
X0125806Y0018739D01*
X0126151Y0018394D01*
X0126395Y0017972D01*
X0126521Y0017501D01*
X0126521Y0011219D01*
X0115678Y0011219D01*
X0115678Y0010619D01*
X0115678Y0003800D01*
X0115078Y0003800D01*
X0115078Y0010619D01*
X0115678Y0010619D01*
X0126521Y0010619D01*
X0126521Y0004336D01*
X0126395Y0003866D01*
X0126357Y0003800D01*
X0126586Y0003800D01*
X0126574Y0022777D01*
X0126575Y0021772D02*
X0111118Y0021772D01*
X0110519Y0021174D02*
X0126575Y0021174D01*
X0126576Y0020575D02*
X0109921Y0020575D01*
X0108519Y0021174D02*
X0086457Y0021174D01*
X0086457Y0021772D02*
X0109118Y0021772D01*
X0107921Y0020575D02*
X0083685Y0020575D01*
X0083385Y0020427D02*
X0113773Y0020427D01*
X0115122Y0021777D01*
X0115378Y0021521D01*
X0115378Y0010919D01*
X0115078Y0010999D02*
X0100345Y0010999D01*
X0100943Y0011598D02*
X0104236Y0011598D01*
X0104236Y0012196D02*
X0101542Y0012196D01*
X0102140Y0012795D02*
X0104236Y0012795D01*
X0104236Y0013393D02*
X0102739Y0013393D01*
X0103337Y0013992D02*
X0104236Y0013992D01*
X0104236Y0014590D02*
X0103936Y0014590D01*
X0096122Y0015777D02*
X0095802Y0015456D01*
X0092773Y0015456D01*
X0088206Y0015456D02*
X0087801Y0015860D01*
X0083385Y0015860D01*
X0083032Y0015507D01*
X0079266Y0015507D01*
X0076778Y0013018D01*
X0072085Y0013018D01*
X0073469Y0011777D02*
X0076122Y0011777D01*
X0076960Y0010940D01*
X0079266Y0010940D01*
X0082924Y0010940D01*
X0083539Y0010325D01*
X0087813Y0010325D01*
X0088225Y0010736D01*
X0092792Y0010736D02*
X0092832Y0010777D01*
X0096122Y0010777D01*
X0099148Y0009802D02*
X0104236Y0009802D01*
X0104236Y0010401D02*
X0099746Y0010401D01*
X0098549Y0009204D02*
X0104236Y0009204D01*
X0104236Y0008605D02*
X0097951Y0008605D01*
X0097352Y0008007D02*
X0104236Y0008007D01*
X0104236Y0007408D02*
X0086610Y0007408D01*
X0086610Y0006810D02*
X0104236Y0006810D01*
X0104236Y0006211D02*
X0086610Y0006211D01*
X0083839Y0005613D02*
X0104236Y0005613D01*
X0104236Y0005014D02*
X0086610Y0005014D01*
X0086610Y0004416D02*
X0104236Y0004416D01*
X0104390Y0003817D02*
X0086584Y0003817D01*
X0083239Y0005458D02*
X0080467Y0005458D01*
X0080467Y0003913D01*
X0080497Y0003800D01*
X0057145Y0003800D01*
X0062122Y0008777D01*
X0068816Y0008777D01*
X0068816Y0007950D01*
X0067880Y0007013D01*
X0067880Y0005200D01*
X0069162Y0003917D01*
X0070975Y0003917D01*
X0072258Y0005200D01*
X0072258Y0007013D01*
X0071416Y0007855D01*
X0071416Y0008777D01*
X0076428Y0008777D01*
X0077039Y0008166D01*
X0077733Y0008166D01*
X0078122Y0007777D01*
X0080514Y0007777D01*
X0080467Y0007602D01*
X0080467Y0006058D01*
X0083239Y0006058D01*
X0083239Y0005458D01*
X0083239Y0005613D02*
X0072258Y0005613D01*
X0072258Y0006211D02*
X0080467Y0006211D01*
X0080467Y0006810D02*
X0072258Y0006810D01*
X0071863Y0007408D02*
X0080467Y0007408D01*
X0077893Y0008007D02*
X0071416Y0008007D01*
X0071416Y0008605D02*
X0076600Y0008605D01*
X0079047Y0010721D02*
X0079266Y0010940D01*
X0073469Y0011777D02*
X0072413Y0010721D01*
X0072085Y0011050D01*
X0068816Y0008605D02*
X0061951Y0008605D01*
X0061352Y0008007D02*
X0068816Y0008007D01*
X0068275Y0007408D02*
X0060753Y0007408D01*
X0060155Y0006810D02*
X0067880Y0006810D01*
X0067880Y0006211D02*
X0059556Y0006211D01*
X0058958Y0005613D02*
X0067880Y0005613D01*
X0068065Y0005014D02*
X0058359Y0005014D01*
X0057761Y0004416D02*
X0068664Y0004416D01*
X0071473Y0004416D02*
X0080467Y0004416D01*
X0080467Y0005014D02*
X0072072Y0005014D01*
X0080493Y0003817D02*
X0057162Y0003817D01*
X0052359Y0005014D02*
X0033333Y0005014D01*
X0033507Y0005191D02*
X0033007Y0004683D01*
X0032829Y0004682D01*
X0032686Y0004575D01*
X0031980Y0004676D01*
X0025122Y0004629D01*
X0025122Y0003800D01*
X0051145Y0003800D01*
X0056669Y0009324D01*
X0056669Y0010420D01*
X0057327Y0011077D01*
X0056392Y0011077D01*
X0055992Y0010677D01*
X0040822Y0010677D01*
X0033507Y0005191D01*
X0034070Y0005613D02*
X0052958Y0005613D01*
X0053556Y0006211D02*
X0034868Y0006211D01*
X0035666Y0006810D02*
X0054155Y0006810D01*
X0054753Y0007408D02*
X0036464Y0007408D01*
X0037262Y0008007D02*
X0055352Y0008007D01*
X0055951Y0008605D02*
X0038060Y0008605D01*
X0038858Y0009204D02*
X0056549Y0009204D01*
X0056669Y0009802D02*
X0039656Y0009802D01*
X0040454Y0010401D02*
X0056669Y0010401D01*
X0056314Y0010999D02*
X0057249Y0010999D01*
X0058338Y0014077D02*
X0058338Y0016099D01*
X0058938Y0016099D01*
X0058938Y0014077D01*
X0058338Y0014077D01*
X0058338Y0014590D02*
X0058938Y0014590D01*
X0058938Y0015189D02*
X0058338Y0015189D01*
X0058338Y0015787D02*
X0058938Y0015787D01*
X0058338Y0016099D02*
X0055665Y0016099D01*
X0055665Y0014877D01*
X0040272Y0014877D01*
X0039558Y0014979D01*
X0039422Y0014877D01*
X0039252Y0014877D01*
X0038743Y0014367D01*
X0031416Y0008872D01*
X0025122Y0008829D01*
X0025122Y0025986D01*
X0031387Y0026531D01*
X0040038Y0026531D01*
X0039822Y0026316D01*
X0038473Y0024966D01*
X0037216Y0024966D01*
X0035933Y0023684D01*
X0035933Y0021870D01*
X0037216Y0020588D01*
X0039029Y0020588D01*
X0040311Y0021870D01*
X0040311Y0023128D01*
X0041661Y0024477D01*
X0045016Y0024477D01*
X0044933Y0024395D01*
X0044933Y0022581D01*
X0046216Y0021299D01*
X0048029Y0021299D01*
X0049311Y0022581D01*
X0049311Y0023077D01*
X0055665Y0023077D01*
X0055665Y0021935D01*
X0058338Y0021935D01*
X0058338Y0021335D01*
X0058938Y0021335D01*
X0058938Y0018564D01*
X0058938Y0016699D01*
X0058338Y0016699D01*
X0058338Y0016099D01*
X0058338Y0016386D02*
X0025122Y0016386D01*
X0025122Y0016984D02*
X0055665Y0016984D01*
X0055665Y0016699D02*
X0058338Y0016699D01*
X0058338Y0021335D01*
X0055665Y0021335D01*
X0055665Y0019693D01*
X0055753Y0019362D01*
X0055925Y0019065D01*
X0055973Y0019017D01*
X0055925Y0018969D01*
X0055753Y0018673D01*
X0055665Y0018342D01*
X0055665Y0016699D01*
X0055665Y0017583D02*
X0025122Y0017583D01*
X0025122Y0018181D02*
X0055665Y0018181D01*
X0055815Y0018780D02*
X0025122Y0018780D01*
X0025122Y0019378D02*
X0055749Y0019378D01*
X0055665Y0019977D02*
X0025122Y0019977D01*
X0025122Y0020575D02*
X0055665Y0020575D01*
X0055665Y0021174D02*
X0039615Y0021174D01*
X0040213Y0021772D02*
X0045742Y0021772D01*
X0045144Y0022371D02*
X0040311Y0022371D01*
X0040311Y0022969D02*
X0044933Y0022969D01*
X0044933Y0023568D02*
X0040752Y0023568D01*
X0041350Y0024166D02*
X0044933Y0024166D01*
X0049311Y0022969D02*
X0055665Y0022969D01*
X0055665Y0022371D02*
X0049101Y0022371D01*
X0048502Y0021772D02*
X0058338Y0021772D01*
X0058338Y0021174D02*
X0058938Y0021174D01*
X0058938Y0020575D02*
X0058338Y0020575D01*
X0058338Y0019977D02*
X0058938Y0019977D01*
X0058938Y0019378D02*
X0058338Y0019378D01*
X0058338Y0018780D02*
X0058938Y0018780D01*
X0058938Y0018181D02*
X0058338Y0018181D01*
X0058338Y0017583D02*
X0058938Y0017583D01*
X0058938Y0016984D02*
X0058338Y0016984D01*
X0055665Y0015787D02*
X0025122Y0015787D01*
X0025122Y0015189D02*
X0055665Y0015189D01*
X0072085Y0014987D02*
X0075405Y0015090D01*
X0074477Y0018777D02*
X0073775Y0018777D01*
X0073775Y0019624D01*
X0073485Y0019914D01*
X0073485Y0023052D01*
X0072463Y0024074D01*
X0071642Y0024894D01*
X0065704Y0024894D01*
X0071227Y0030417D01*
X0071227Y0027156D01*
X0071871Y0026512D01*
X0074885Y0026512D01*
X0074885Y0025286D01*
X0077657Y0025286D01*
X0077657Y0024686D01*
X0074885Y0024686D01*
X0074885Y0023141D01*
X0074974Y0022811D01*
X0075111Y0022573D01*
X0075085Y0022548D01*
X0075085Y0019386D01*
X0074477Y0018777D01*
X0074480Y0018780D02*
X0073775Y0018780D01*
X0073775Y0019378D02*
X0075078Y0019378D01*
X0075085Y0019977D02*
X0073485Y0019977D01*
X0073485Y0020575D02*
X0075085Y0020575D01*
X0075085Y0021174D02*
X0073485Y0021174D01*
X0073485Y0021772D02*
X0075085Y0021772D01*
X0075085Y0022371D02*
X0073485Y0022371D01*
X0073485Y0022969D02*
X0074931Y0022969D01*
X0074885Y0023568D02*
X0072968Y0023568D01*
X0072370Y0024166D02*
X0074885Y0024166D01*
X0077657Y0024765D02*
X0071771Y0024765D01*
X0074885Y0025364D02*
X0066173Y0025364D01*
X0066772Y0025962D02*
X0074885Y0025962D01*
X0077657Y0025962D02*
X0078257Y0025962D01*
X0078257Y0025364D02*
X0077657Y0025364D01*
X0078257Y0024765D02*
X0084094Y0024765D01*
X0083495Y0025364D02*
X0081029Y0025364D01*
X0081029Y0025962D02*
X0082897Y0025962D01*
X0081823Y0026561D02*
X0081029Y0026561D01*
X0080941Y0027159D02*
X0081227Y0027159D01*
X0081101Y0027758D02*
X0080426Y0027758D01*
X0080503Y0028356D02*
X0075986Y0028356D01*
X0077657Y0027758D02*
X0078257Y0027758D01*
X0078257Y0027159D02*
X0077657Y0027159D01*
X0077657Y0026561D02*
X0078257Y0026561D01*
X0071823Y0026561D02*
X0067370Y0026561D01*
X0067969Y0027159D02*
X0071227Y0027159D01*
X0071227Y0027758D02*
X0068568Y0027758D01*
X0069166Y0028356D02*
X0071227Y0028356D01*
X0071227Y0028955D02*
X0069765Y0028955D01*
X0070363Y0029553D02*
X0071227Y0029553D01*
X0071227Y0030152D02*
X0070962Y0030152D01*
X0075986Y0030152D02*
X0078628Y0030152D01*
X0079227Y0029553D02*
X0075986Y0029553D01*
X0075986Y0028955D02*
X0079825Y0028955D01*
X0078109Y0030750D02*
X0075986Y0030750D01*
X0075986Y0031349D02*
X0077972Y0031349D01*
X0077871Y0031947D02*
X0075986Y0031947D01*
X0075986Y0032546D02*
X0077707Y0032546D01*
X0077707Y0033144D02*
X0075986Y0033144D01*
X0075986Y0033743D02*
X0077707Y0033743D01*
X0077707Y0034341D02*
X0075986Y0034341D01*
X0075986Y0034940D02*
X0077810Y0034940D01*
X0078058Y0035538D02*
X0075986Y0035538D01*
X0075986Y0036137D02*
X0078306Y0036137D01*
X0078553Y0036735D02*
X0075986Y0036735D01*
X0075986Y0037334D02*
X0079079Y0037334D01*
X0079678Y0037932D02*
X0075986Y0037932D01*
X0043607Y0034777D02*
X0043607Y0028631D01*
X0039469Y0025962D02*
X0025122Y0025962D01*
X0025122Y0025364D02*
X0038870Y0025364D01*
X0037015Y0024765D02*
X0025122Y0024765D01*
X0025122Y0024166D02*
X0036416Y0024166D01*
X0035933Y0023568D02*
X0025122Y0023568D01*
X0025122Y0022969D02*
X0035933Y0022969D01*
X0035933Y0022371D02*
X0025122Y0022371D01*
X0025122Y0021772D02*
X0036031Y0021772D01*
X0036630Y0021174D02*
X0025122Y0021174D01*
X0012122Y0026777D02*
X0012122Y0029260D01*
X0013502Y0030639D01*
X0012260Y0030639D01*
X0012122Y0030777D01*
X0007122Y0030777D01*
X0012122Y0032019D02*
X0012122Y0034777D01*
X0009364Y0034777D02*
X0007122Y0034777D01*
X0009364Y0034777D02*
X0013502Y0030639D01*
X0011766Y0028903D01*
X0011766Y0028134D01*
X0013502Y0030639D02*
X0013640Y0030777D01*
X0017122Y0030777D01*
X0016122Y0031777D02*
X0014640Y0031777D01*
X0013502Y0030639D01*
X0012122Y0032019D01*
X0025122Y0014590D02*
X0038966Y0014590D01*
X0038242Y0013992D02*
X0025122Y0013992D01*
X0025122Y0013393D02*
X0037444Y0013393D01*
X0036646Y0012795D02*
X0025122Y0012795D01*
X0025122Y0012196D02*
X0035848Y0012196D01*
X0035050Y0011598D02*
X0025122Y0011598D01*
X0025122Y0010999D02*
X0034252Y0010999D01*
X0033454Y0010401D02*
X0025122Y0010401D01*
X0025122Y0009802D02*
X0032656Y0009802D01*
X0031858Y0009204D02*
X0025122Y0009204D01*
X0021122Y0009777D02*
X0014382Y0009777D01*
X0013587Y0010572D01*
X0018382Y0005777D01*
X0020795Y0005777D01*
X0021122Y0005777D01*
X0017122Y0005777D02*
X0017122Y0007037D01*
X0013587Y0010572D01*
X0014774Y0009385D01*
X0017515Y0009385D01*
X0017122Y0009777D01*
X0016327Y0010572D01*
X0013587Y0010572D01*
X0008792Y0005777D01*
X0007122Y0005777D01*
X0012122Y0005777D02*
X0012122Y0009108D01*
X0013587Y0010572D01*
X0015960Y0012946D01*
X0016291Y0012946D01*
X0017122Y0013777D01*
X0013587Y0012312D02*
X0012122Y0013777D01*
X0010382Y0013777D02*
X0006122Y0013777D01*
X0010382Y0013777D02*
X0013587Y0010572D01*
X0011792Y0008777D01*
X0006122Y0008777D01*
X0012122Y0009777D02*
X0012792Y0009777D01*
X0013587Y0010572D01*
X0013587Y0012312D01*
X0026095Y0011377D02*
X0026122Y0011777D01*
X0041822Y0007049D02*
X0042122Y0006777D01*
X0051162Y0003817D02*
X0025122Y0003817D01*
X0025122Y0004416D02*
X0051761Y0004416D01*
X0086457Y0018780D02*
X0105022Y0018780D01*
X0106724Y0019378D02*
X0086457Y0019378D01*
X0086457Y0019977D02*
X0107322Y0019977D01*
X0108724Y0019378D02*
X0126576Y0019378D01*
X0126576Y0019977D02*
X0109322Y0019977D01*
X0115078Y0018780D02*
X0115678Y0018780D01*
X0115678Y0018181D02*
X0115078Y0018181D01*
X0115078Y0017583D02*
X0115678Y0017583D01*
X0115678Y0016984D02*
X0115078Y0016984D01*
X0115078Y0016386D02*
X0115678Y0016386D01*
X0115678Y0015787D02*
X0115078Y0015787D01*
X0115078Y0015189D02*
X0115678Y0015189D01*
X0115678Y0014590D02*
X0115078Y0014590D01*
X0115078Y0013992D02*
X0115678Y0013992D01*
X0115678Y0013393D02*
X0115078Y0013393D01*
X0115078Y0012795D02*
X0115678Y0012795D01*
X0115678Y0012196D02*
X0115078Y0012196D01*
X0115078Y0011598D02*
X0115678Y0011598D01*
X0115678Y0010999D02*
X0126582Y0010999D01*
X0126581Y0011598D02*
X0126521Y0011598D01*
X0126521Y0012196D02*
X0126581Y0012196D01*
X0126581Y0012795D02*
X0126521Y0012795D01*
X0126521Y0013393D02*
X0126580Y0013393D01*
X0126580Y0013992D02*
X0126521Y0013992D01*
X0126521Y0014590D02*
X0126579Y0014590D01*
X0126579Y0015189D02*
X0126521Y0015189D01*
X0126521Y0015787D02*
X0126579Y0015787D01*
X0126578Y0016386D02*
X0126521Y0016386D01*
X0126521Y0016984D02*
X0126578Y0016984D01*
X0126578Y0017583D02*
X0126499Y0017583D01*
X0126577Y0018181D02*
X0126274Y0018181D01*
X0126577Y0018780D02*
X0125735Y0018780D01*
X0104709Y0023568D02*
X0081029Y0023568D01*
X0081029Y0024166D02*
X0084692Y0024166D01*
X0083685Y0022969D02*
X0083085Y0022969D01*
X0083085Y0022371D02*
X0083685Y0022371D01*
X0083685Y0021772D02*
X0083085Y0021772D01*
X0083085Y0021174D02*
X0083685Y0021174D01*
X0115078Y0010401D02*
X0115678Y0010401D01*
X0115678Y0009802D02*
X0115078Y0009802D01*
X0115078Y0009204D02*
X0115678Y0009204D01*
X0115678Y0008605D02*
X0115078Y0008605D01*
X0115078Y0008007D02*
X0115678Y0008007D01*
X0115678Y0007408D02*
X0115078Y0007408D01*
X0115078Y0006810D02*
X0115678Y0006810D01*
X0115678Y0006211D02*
X0115078Y0006211D01*
X0115078Y0005613D02*
X0115678Y0005613D01*
X0115678Y0005014D02*
X0115078Y0005014D01*
X0115078Y0004416D02*
X0115678Y0004416D01*
X0115678Y0003817D02*
X0115078Y0003817D01*
X0126367Y0003817D02*
X0126586Y0003817D01*
X0126586Y0004416D02*
X0126521Y0004416D01*
X0126521Y0005014D02*
X0126585Y0005014D01*
X0126585Y0005613D02*
X0126521Y0005613D01*
X0126521Y0006211D02*
X0126585Y0006211D01*
X0126584Y0006810D02*
X0126521Y0006810D01*
X0126521Y0007408D02*
X0126584Y0007408D01*
X0126584Y0008007D02*
X0126521Y0008007D01*
X0126521Y0008605D02*
X0126583Y0008605D01*
X0126583Y0009204D02*
X0126521Y0009204D01*
X0126521Y0009802D02*
X0126582Y0009802D01*
X0126582Y0010401D02*
X0126521Y0010401D01*
D21*
X0063205Y0016399D02*
X0063205Y0021635D01*
D22*
X0063349Y0024377D02*
X0072489Y0033517D01*
X0073607Y0033517D01*
X0063607Y0033517D02*
X0063607Y0028261D01*
X0061122Y0025777D01*
X0041122Y0025777D01*
X0038122Y0022777D01*
X0047122Y0023488D02*
X0048011Y0024377D01*
X0063349Y0024377D01*
X0074493Y0016955D02*
X0077957Y0020419D01*
X0074493Y0016955D02*
X0072085Y0016955D01*
X0063205Y0016399D02*
X0061122Y0012777D01*
X0057122Y0012777D01*
X0058858Y0009513D02*
X0060395Y0011050D01*
X0062613Y0011050D01*
X0063174Y0010488D01*
X0065070Y0010488D01*
X0065632Y0011050D01*
X0068148Y0011050D01*
X0070116Y0011050D02*
X0070116Y0006154D01*
X0070069Y0006106D01*
X0067970Y0012840D02*
X0067406Y0012840D01*
X0067343Y0012777D01*
X0064122Y0012777D01*
X0067970Y0012840D02*
X0068148Y0013018D01*
D23*
X0055122Y0012777D02*
X0040122Y0012777D01*
X0032122Y0006777D01*
X0023245Y0006716D01*
X0020795Y0005777D01*
X0021122Y0026777D02*
X0021122Y0030639D01*
X0013502Y0030639D01*
X0013502Y0028631D01*
X0043607Y0028631D01*
D24*
X0043607Y0033517D02*
X0043607Y0034777D01*
X0043607Y0037627D01*
X0021122Y0037627D01*
X0021122Y0035777D01*
X0055122Y0012777D02*
X0057122Y0012777D01*
D25*
X0058638Y0015542D02*
X0058638Y0016399D01*
X0061347Y0008777D02*
X0066122Y0008777D01*
X0066122Y0007024D01*
X0066122Y0005777D01*
X0066122Y0007024D02*
X0061122Y0007024D01*
X0061122Y0005777D01*
X0061122Y0007024D02*
X0056369Y0007024D01*
X0056369Y0007049D01*
X0041822Y0007049D01*
X0111122Y0029777D02*
X0111122Y0030761D01*
X0115481Y0030761D01*
X0115481Y0032777D01*
X0111122Y0032777D01*
X0114309Y0030761D02*
X0114309Y0029590D01*
X0114309Y0030761D02*
X0115481Y0030761D01*
X0120122Y0030761D01*
X0120122Y0032777D01*
X0120122Y0029777D02*
X0117721Y0029777D01*
X0041122Y0037777D02*
X0021122Y0037777D01*
X0021122Y0035777D01*
X0021122Y0034777D01*
X0021122Y0030639D01*
D26*
X0080122Y0031777D02*
X0084122Y0027777D01*
X0112496Y0027777D01*
X0114309Y0029590D01*
X0116122Y0030120D02*
X0112725Y0033517D01*
X0116122Y0030120D02*
X0116122Y0025777D01*
X0086122Y0025777D01*
X0084122Y0027777D01*
D27*
X0104122Y0010777D02*
X0115378Y0010919D01*
M02*
